<?xml version="1.0" encoding="UTF-8"?>
<svg version="1.1" xmlns="http://www.w3.org/2000/svg" width="1024" height="1024">
<path d="M0 0 C337.92 0 675.84 0 1024 0 C1024 337.92 1024 675.84 1024 1024 C686.08 1024 348.16 1024 0 1024 C0 686.08 0 348.16 0 0 Z " fill="#FDFDFD" transform="translate(0,0)"/>
<path d="M0 0 C-1.37548479 3.51160632 -2.86184486 6.94880906 -4.4375 10.375 C-5.82356849 13.40576201 -7.18709089 16.43654542 -8.5 19.5 C-10.58708399 24.36986264 -12.79882535 29.18086023 -15 34 C-15.83372347 35.83315595 -16.66706138 37.6664873 -17.5 39.5 C-17.91378906 40.41007812 -18.32757812 41.32015625 -18.75390625 42.2578125 C-19.57500596 44.06474665 -20.3953373 45.87203019 -21.21484375 47.6796875 C-23.49794543 52.71272316 -25.80136225 57.73553236 -28.125 62.75 C-30.15475596 67.14090066 -32.11538321 71.54545123 -34 76 C-37.16776499 83.20062244 -40.4117952 90.36746376 -43.64453125 97.5390625 C-46.11294257 103.01876598 -48.56375883 108.50592526 -51 114 C-57.84499067 129.42640442 -64.71424348 144.84132751 -71.62216187 160.2396698 C-72.0373558 161.16517387 -72.0373558 161.16517387 -72.4609375 162.109375 C-72.74184235 162.735522 -73.02274719 163.36166901 -73.31216431 164.00679016 C-84.45729774 188.8523142 -95.56099239 213.71613334 -106.6053772 238.60661316 C-108.12564645 242.03273821 -109.65074379 245.45664615 -111.1796875 248.87890625 C-112.89328561 252.73301489 -114.54706357 256.61135936 -116.19506836 260.49389648 C-119.69492941 268.73466611 -123.29205909 276.90270495 -127.12109375 284.99609375 C-129.87927288 290.83933617 -132.52439103 296.73481623 -135.18530273 302.62280273 C-143.69456363 321.41372341 -152.62929146 340.00879931 -161.49772644 358.6318512 C-163.8866176 363.65081374 -166.26196312 368.6758539 -168.625 373.70703125 C-179.35984021 396.49950391 -190.34302699 416.83985708 -215.25 425.9375 C-226.12918005 429.48461298 -235.21183407 428.38412018 -245.3125 423.375 C-251.37255139 420.16960074 -256.92391261 416.63672071 -262 412 C-262.83402344 411.2575 -263.66804688 410.515 -264.52734375 409.75 C-296.79914789 379.37653728 -316.32650985 330.7912319 -333.49806213 290.73553467 C-335.45576673 286.19247218 -337.51495884 281.7045975 -339.625 277.23046875 C-342.52705566 271.07435113 -345.21425595 264.85215175 -347.8125 258.5625 C-357.90212943 234.44129718 -368.85934472 210.67105013 -379.828125 186.93896484 C-380.42367187 185.64853271 -380.42367187 185.64853271 -381.03125 184.33203125 C-381.53495117 183.24498901 -381.53495117 183.24498901 -382.04882812 182.13598633 C-383.09744866 179.78116572 -384.0564202 177.39861559 -385 175 C-411.34552497 187.36034542 -423.27078193 230.97978054 -434 256 C-434.50418457 257.17530273 -435.00836914 258.35060547 -435.52783203 259.56152344 C-439.74622156 269.42628928 -443.88909678 279.32211255 -448.00390625 289.23046875 C-456.34770112 309.29890519 -465.03107348 329.20286922 -474 349 C-474.53431641 350.18287598 -475.06863281 351.36575195 -475.61914062 352.58447266 C-485.92243621 375.25374848 -497.51176581 394.43821299 -519 408 C-519.86915039 408.56001709 -519.86915039 408.56001709 -520.75585938 409.13134766 C-552.78142719 429.27617624 -595.10669141 434.99247023 -632 439 C-633.05396973 439.11714355 -634.10793945 439.23428711 -635.19384766 439.35498047 C-651.27764828 441.12743795 -651.27764828 441.12743795 -658 441 C-656.59555582 436.50919889 -654.84048514 432.27808028 -652.83203125 428.03125 C-652.52051117 427.36660233 -652.20899109 426.70195465 -651.88803101 426.01716614 C-650.86687239 423.84285975 -649.84008116 421.67127771 -648.8125 419.5 C-648.4591861 418.75068207 -648.10587219 418.00136414 -647.74185181 417.2293396 C-642.09325723 405.25537273 -636.25559591 393.38559133 -630.29833984 381.56274414 C-625.21259387 371.46614326 -620.31480271 361.28902845 -615.46582031 351.07714844 C-612.89967957 345.69013345 -610.31020399 340.31438471 -607.71780396 334.93997192 C-606.85115783 333.14267086 -605.98596958 331.34466703 -605.12084961 329.54663086 C-601.20748647 321.43451332 -597.20146237 313.37250657 -593.16305542 305.32229614 C-591.4282935 301.85846214 -589.70134494 298.3907469 -587.97401428 294.92320251 C-586.0239915 291.00911875 -584.07158137 287.09622767 -582.11914062 283.18334961 C-581.12590524 281.19184774 -580.13338791 279.19998757 -579.14160156 277.20776367 C-573.26897521 265.41302254 -567.29816749 253.68344066 -561.13037109 242.0402832 C-558.67451551 237.3986453 -556.31678077 232.71239936 -554 228 C-549.66566999 219.27198882 -545.1763891 210.6366254 -540.60693359 202.02978516 C-538.6988069 198.43211692 -536.79661739 194.83133306 -534.89453125 191.23046875 C-525.32509667 173.12010368 -515.69875171 155.04147915 -506 137 C-505.40735352 135.89720703 -504.81470703 134.79441406 -504.20410156 133.65820312 C-500.70472011 127.14816998 -497.20010135 120.64098495 -493.69091797 114.13623047 C-492.02222101 111.04121442 -490.35672676 107.94449003 -488.69140625 104.84765625 C-477.31229644 83.71696939 -465.62390325 62.88634858 -452.69677734 42.65576172 C-451.62989943 40.98590589 -450.56711152 39.3134227 -449.51025391 37.63720703 C-442.33913624 26.27161367 -434.73179852 14.73202376 -421.1875 10.75 C-410.21091902 8.4457559 -397.82191383 10.52144505 -388 16 C-388 16.66 -388 17.32 -388 18 C-387.11828125 18.2475 -386.2365625 18.495 -385.328125 18.75 C-366.15562323 25.95093963 -351.33782389 50.38859224 -341 67 C-340.40227783 67.95463135 -339.80455566 68.9092627 -339.1887207 69.89282227 C-330.36261198 84.0283779 -321.85632107 98.30974369 -313.578125 112.7734375 C-310.29421136 118.50705901 -306.94051075 124.19645644 -303.5625 129.875 C-298.60457834 138.22393126 -293.74849349 146.62837238 -288.9375 155.0625 C-288.59549561 155.66206512 -288.25349121 156.26163025 -287.90112305 156.87936401 C-285.06202699 161.85844468 -282.22749597 166.84011513 -279.39550781 171.82324219 C-273.04854123 182.99005419 -266.62089649 194.10680058 -260.125 205.1875 C-259.76383087 205.80374237 -259.40266174 206.41998474 -259.0305481 207.05490112 C-257.98206825 208.84304085 -256.93262826 210.63061306 -255.8828125 212.41796875 C-254.89909668 214.09318604 -254.89909668 214.09318604 -253.89550781 215.80224609 C-251.64742468 219.59480056 -249.34924353 223.35531096 -247.02685547 227.1027832 C-246 229 -246 229 -246 231 C-245.34 231 -244.68 231 -244 231 C-243.73703125 230.14535156 -243.4740625 229.29070312 -243.203125 228.41015625 C-241.96400536 224.89797622 -240.45239588 221.74977024 -238.75 218.4375 C-229.81222478 200.81075273 -221.19155159 183.03058616 -213.33374023 164.89477539 C-210.62327191 158.65157291 -207.8481222 152.4427582 -205.0078125 146.2578125 C-204.65719757 145.49411346 -204.30658264 144.73041443 -203.94534302 143.943573 C-202.21691331 140.18248034 -200.483383 136.42381011 -198.74462891 132.66748047 C-195.12099024 124.81108861 -191.69580093 116.90779228 -188.44763184 108.88874817 C-186.58113156 104.31452169 -184.52935864 99.90163059 -182.25585938 95.51318359 C-180.13703038 91.27305419 -178.29246581 86.91224634 -176.39526367 82.56958008 C-165.09292226 56.70629351 -152.63055763 34.43688365 -126.4140625 21.6953125 C-123.69494797 20.34508858 -121.10482029 18.92618511 -118.5 17.375 C-109.43951391 12.25532013 -99.03941824 9.52009886 -89 7 C-87.67665087 11.17222572 -88.76953645 13.84718553 -90 18 C-89.67 18.66 -89.34 19.32 -89 20 C-89.27942455 21.67654729 -89.60828247 23.34608154 -90 25 C-90.66 25 -91.32 25 -92 25 C-91.9690625 26.60875 -91.9690625 26.60875 -91.9375 28.25 C-91.9857984 31.14790424 -92.13155885 33.28612141 -93 36 C-91.68 36 -90.36 36 -89 36 C-87.85680792 42.61898609 -87.6699976 49.23318404 -87.4375 55.9375 C-87.37272461 57.67870117 -87.37272461 57.67870117 -87.30664062 59.45507812 C-87.20115158 62.30328232 -87.09903445 65.15156529 -87 68 C-86.67 68 -86.34 68 -86 68 C-85.94465088 67.43079834 -85.88930176 66.86159668 -85.83227539 66.27514648 C-85.57729285 63.66243776 -85.31991322 61.04997032 -85.0625 58.4375 C-84.93198242 57.09461914 -84.93198242 57.09461914 -84.79882812 55.72460938 C-83.35444352 41.12027616 -83.35444352 41.12027616 -81 37 C-79.95023036 33.85069107 -79.89868405 31.61185544 -79.9375 28.3125 C-79.95103516 26.82169922 -79.95103516 26.82169922 -79.96484375 25.30078125 C-79.97644531 24.54152344 -79.98804688 23.78226563 -80 23 C-80.66 23 -81.32 23 -82 23 C-80.73645088 17.94580351 -79.20575283 15.99382406 -75 13 C-52.57782844 1.00091458 -24.88875335 -0.3895631 0 0 Z " fill="#3287D9" transform="translate(840,193)"/>
<path d="M0 0 C-1.37548479 3.51160632 -2.86184486 6.94880906 -4.4375 10.375 C-5.82356849 13.40576201 -7.18709089 16.43654542 -8.5 19.5 C-10.58708399 24.36986264 -12.79882535 29.18086023 -15 34 C-15.83372347 35.83315595 -16.66706138 37.6664873 -17.5 39.5 C-17.91378906 40.41007812 -18.32757812 41.32015625 -18.75390625 42.2578125 C-19.57500596 44.06474665 -20.3953373 45.87203019 -21.21484375 47.6796875 C-23.49794543 52.71272316 -25.80136225 57.73553236 -28.125 62.75 C-30.15475596 67.14090066 -32.11538321 71.54545123 -34 76 C-37.16776499 83.20062244 -40.4117952 90.36746376 -43.64453125 97.5390625 C-46.11294257 103.01876598 -48.56375883 108.50592526 -51 114 C-57.84499067 129.42640442 -64.71424348 144.84132751 -71.62216187 160.2396698 C-71.89895782 160.85667252 -72.17575378 161.47367523 -72.4609375 162.109375 C-72.74184235 162.735522 -73.02274719 163.36166901 -73.31216431 164.00679016 C-84.45729774 188.8523142 -95.56099239 213.71613334 -106.6053772 238.60661316 C-108.12564645 242.03273821 -109.65074379 245.45664615 -111.1796875 248.87890625 C-112.89328561 252.73301489 -114.54706357 256.61135936 -116.19506836 260.49389648 C-119.69492941 268.73466611 -123.29205909 276.90270495 -127.12109375 284.99609375 C-129.87927288 290.83933617 -132.52439103 296.73481623 -135.18530273 302.62280273 C-143.69456363 321.41372341 -152.62929146 340.00879931 -161.49772644 358.6318512 C-163.8866176 363.65081374 -166.26196312 368.6758539 -168.625 373.70703125 C-179.35984021 396.49950391 -190.34302699 416.83985708 -215.25 425.9375 C-226.12918005 429.48461298 -235.21183407 428.38412018 -245.3125 423.375 C-251.37255139 420.16960074 -256.92391261 416.63672071 -262 412 C-262.83402344 411.2575 -263.66804687 410.515 -264.52734375 409.75 C-296.800158 379.37558658 -316.3264424 330.78960344 -333.49916077 290.73306274 C-335.44643398 286.21434933 -337.4943109 281.75061811 -339.59375 277.30078125 C-342.6820315 270.75186434 -345.53699169 264.12430936 -348.3125 257.4375 C-352.35875413 247.76226123 -356.57233245 238.1829564 -361.00317383 228.67749023 C-361.59521606 227.39853882 -361.59521606 227.39853882 -362.19921875 226.09375 C-362.54815186 225.34802734 -362.89708496 224.60230469 -363.2565918 223.83398438 C-364 222 -364 222 -364 220 C-361 221 -361 221 -359.30859375 223.96484375 C-358.6764508 225.28505195 -358.05341859 226.60964509 -357.4375 227.9375 C-354.49637609 234.05119637 -351.39259958 240.02655714 -348.0625 245.9375 C-344.79514134 251.75216404 -341.59907188 257.5938723 -338.5 263.5 C-317.75899558 306.64709074 -317.75899558 306.64709074 -280.40869141 333.36938477 C-266.1183152 337.11072287 -252.68742628 332.98972284 -240.01953125 326.46484375 C-232.06774533 321.79474726 -225.55706182 315.40157957 -219 309 C-218.34821777 308.36868164 -217.69643555 307.73736328 -217.02490234 307.08691406 C-214.98722211 305.1081207 -212.96019845 303.11909862 -210.9375 301.125 C-210.30618164 300.50689453 -209.67486328 299.88878906 -209.02441406 299.25195312 C-205.49305154 295.72630787 -202.60999123 292.25669393 -200 288 C-201.32 288 -202.64 288 -204 288 C-204 287.34 -204 286.68 -204 286 C-204.53882813 285.94972656 -205.07765625 285.89945312 -205.6328125 285.84765625 C-209.14307199 284.59068214 -211.33624769 282.06289101 -213.875 279.4375 C-214.40512695 278.89754395 -214.93525391 278.35758789 -215.48144531 277.80126953 C-226 266.93683735 -226 266.93683735 -226 263 C-226.66 263 -227.32 263 -228 263 C-228.3403125 262.29617188 -228.680625 261.59234375 -229.03125 260.8671875 C-232.52267257 253.75434258 -236.30165322 246.92923204 -240.36328125 240.12890625 C-241.86013099 237.26738683 -242.71453804 235.1949781 -243 232 C-241.11229323 226.781046 -237.97191578 223.70712139 -234 220 C-234.99 219.67 -235.98 219.34 -237 219 C-237 219.66 -237 220.32 -237 221 C-237.66 221 -238.32 221 -239 221 C-237.54805307 217.2699098 -235.93906075 213.64441236 -234.2421875 210.01953125 C-233.43322021 208.286427 -233.43322021 208.286427 -232.60791016 206.51831055 C-232.18339569 205.61065445 -232.18339569 205.61065445 -231.75030518 204.68466187 C-227.34482733 195.26192811 -222.96170012 185.83188196 -218.80029297 176.2980957 C-216.56905945 171.2054077 -214.22178083 166.16893764 -211.86514282 161.13343811 C-208.55263209 154.05269612 -205.27835558 146.95467659 -202.02050781 139.84863281 C-201.34152641 138.36916807 -200.66119273 136.89032318 -199.97949219 135.41210938 C-195.93189895 126.6339158 -192.06428197 117.81671381 -188.43499756 108.85716248 C-186.57270329 104.29365898 -184.52406088 99.89140453 -182.25585938 95.51318359 C-180.13703038 91.27305419 -178.29246581 86.91224634 -176.39526367 82.56958008 C-165.09292226 56.70629351 -152.63055763 34.43688365 -126.4140625 21.6953125 C-123.69494797 20.34508858 -121.10482029 18.92618511 -118.5 17.375 C-109.43951391 12.25532013 -99.03941824 9.52009886 -89 7 C-87.67665087 11.17222572 -88.76953645 13.84718553 -90 18 C-89.67 18.66 -89.34 19.32 -89 20 C-89.27942455 21.67654729 -89.60828247 23.34608154 -90 25 C-90.66 25 -91.32 25 -92 25 C-91.9690625 26.60875 -91.9690625 26.60875 -91.9375 28.25 C-91.9857984 31.14790424 -92.13155885 33.28612141 -93 36 C-91.68 36 -90.36 36 -89 36 C-87.85680792 42.61898609 -87.6699976 49.23318404 -87.4375 55.9375 C-87.39431641 57.09830078 -87.35113281 58.25910156 -87.30664062 59.45507812 C-87.20115158 62.30328232 -87.09903445 65.15156529 -87 68 C-86.67 68 -86.34 68 -86 68 C-85.94465088 67.43079834 -85.88930176 66.86159668 -85.83227539 66.27514648 C-85.57729285 63.66243776 -85.31991322 61.04997032 -85.0625 58.4375 C-84.97548828 57.54224609 -84.88847656 56.64699219 -84.79882812 55.72460938 C-83.35444352 41.12027616 -83.35444352 41.12027616 -81 37 C-79.95023036 33.85069107 -79.89868405 31.61185544 -79.9375 28.3125 C-79.95103516 26.82169922 -79.95103516 26.82169922 -79.96484375 25.30078125 C-79.97644531 24.54152344 -79.98804688 23.78226563 -80 23 C-80.66 23 -81.32 23 -82 23 C-80.73645088 17.94580351 -79.20575283 15.99382406 -75 13 C-52.57782844 1.00091458 -24.88875335 -0.3895631 0 0 Z " fill="#AA81F9" transform="translate(840,193)"/>
<path d="M0 0 C4.82079124 3.71215231 9.2658081 7.7963831 13.6328125 12.02734375 C14.90898438 13.22423828 14.90898438 13.22423828 16.2109375 14.4453125 C18.80950519 17.21572096 20.59312707 19.93527212 22.5078125 23.21484375 C22.87656494 23.84213379 23.24531738 24.46942383 23.62524414 25.11572266 C24.97109869 27.41391646 26.30256604 29.72008012 27.6328125 32.02734375 C28.19887207 33.00622559 28.76493164 33.98510742 29.34814453 34.99365234 C32.57452642 40.574076 35.79332679 46.15881056 39.0078125 51.74609375 C41.83224201 56.64953632 44.68590436 61.53401658 47.5703125 66.40234375 C51.92028 73.75298754 56.15356021 81.16935719 60.3828125 88.58984375 C67.13714252 100.43951076 73.97486454 112.23795423 80.86669922 124.00830078 C82.75152124 127.23026775 84.63213233 130.45466363 86.51171875 133.6796875 C87.14899902 134.77313477 87.7862793 135.86658203 88.44287109 136.99316406 C89.66335285 139.08750441 90.88373591 141.18190228 92.10400391 143.27636719 C92.65362793 144.21899414 93.20325195 145.16162109 93.76953125 146.1328125 C94.25123779 146.95934326 94.73294434 147.78587402 95.22924805 148.63745117 C96.23097499 150.34312261 97.26186828 152.03180232 98.31176758 153.70825195 C99.6328125 156.02734375 99.6328125 156.02734375 99.6328125 158.02734375 C100.2928125 158.02734375 100.9528125 158.02734375 101.6328125 158.02734375 C101.9215625 157.11984375 102.2103125 156.21234375 102.5078125 155.27734375 C103.39813026 152.70531467 104.34775663 150.41387609 105.6328125 148.02734375 C106.6228125 148.02734375 107.6128125 148.02734375 108.6328125 148.02734375 C108.6328125 147.36734375 108.6328125 146.70734375 108.6328125 146.02734375 C109.9528125 146.35734375 111.2728125 146.68734375 112.6328125 147.02734375 C112.15070313 147.45144531 111.66859375 147.87554687 111.171875 148.3125 C110.54023437 148.89902344 109.90859375 149.48554688 109.2578125 150.08984375 C108.63132812 150.65832031 108.00484375 151.22679687 107.359375 151.8125 C104.97041893 154.87706582 104.20371356 157.1757718 103.6328125 161.02734375 C104.38486701 163.87294554 105.69334665 166.28454411 107.1328125 168.83984375 C107.50212891 169.5361792 107.87144531 170.23251465 108.25195312 170.94995117 C110.84400088 175.78318012 113.62155627 180.50463133 116.6015625 185.109375 C117.6328125 187.02734375 117.6328125 187.02734375 117.6328125 190.02734375 C118.2928125 190.02734375 118.9528125 190.02734375 119.6328125 190.02734375 C121.0250452 191.77363563 122.34559979 193.57726001 123.6328125 195.40234375 C131.12599529 206.13617836 131.12599529 206.13617836 141.6328125 213.02734375 C141.6328125 213.68734375 141.6328125 214.34734375 141.6328125 215.02734375 C143.2828125 214.69734375 144.9328125 214.36734375 146.6328125 214.02734375 C144.01871446 218.948201 141.34605953 222.6978553 137.37890625 226.6796875 C136.62747093 227.43542809 136.62747093 227.43542809 135.8608551 228.20643616 C134.80471674 229.26460207 133.74483624 230.31904517 132.68139648 231.36987305 C131.08808125 232.94725271 129.51126414 234.53982929 127.93554688 236.13476562 C120.01817851 244.06954892 111.69519484 251.42029587 101.5078125 256.33984375 C100.59773438 256.78972656 99.68765625 257.23960937 98.75 257.703125 C91.50414656 260.78125071 85.23488567 262.56898287 77.3203125 262.46484375 C76.49144531 262.45582031 75.66257812 262.44679688 74.80859375 262.4375 C62.56453025 262.0942085 53.95797414 257.84891344 44.6328125 250.02734375 C43.93542969 249.44339844 43.23804688 248.85945313 42.51953125 248.2578125 C32.77113855 239.29085409 26.34418289 226.8445139 20.03125 215.359375 C18.34472976 212.29239624 16.61678516 209.25348137 14.859375 206.2265625 C8.69385044 195.59786558 2.84049923 184.85354767 -2.73925781 173.90454102 C-5.90950923 167.70994296 -9.26900721 161.68360344 -12.8581543 155.72094727 C-14.3671875 153.02734375 -14.3671875 153.02734375 -15.31958008 150.42944336 C-16.22808297 147.92966562 -16.22808297 147.92966562 -18.25561523 146.20239258 C-21.13431569 143.23715471 -22.49320462 139.97595319 -24.15234375 136.2265625 C-24.49470566 135.47196243 -24.83706757 134.71736237 -25.18980408 133.93989563 C-26.27827537 131.53528076 -27.35404417 129.12521994 -28.4296875 126.71484375 C-29.15608677 125.10575195 -29.88329243 123.49702393 -30.61132812 121.88867188 C-33.59022365 115.2931748 -36.53262939 108.68629702 -39.3671875 102.02734375 C-65.71271247 114.38768917 -77.63796943 158.00712429 -88.3671875 183.02734375 C-88.87137207 184.20264648 -89.37555664 185.37794922 -89.89501953 186.58886719 C-94.11340906 196.45363303 -98.25628428 206.3494563 -102.37109375 216.2578125 C-110.71488862 236.32624894 -119.39826098 256.23021297 -128.3671875 276.02734375 C-128.90150391 277.21021973 -129.43582031 278.3930957 -129.98632812 279.61181641 C-140.28962371 302.28109223 -151.87895331 321.46555674 -173.3671875 335.02734375 C-174.23633789 335.58736084 -174.23633789 335.58736084 -175.12304688 336.15869141 C-207.14861469 356.30351999 -249.47387891 362.01981398 -286.3671875 366.02734375 C-287.42115723 366.1444873 -288.47512695 366.26163086 -289.56103516 366.38232422 C-305.64483578 368.1547817 -305.64483578 368.1547817 -312.3671875 368.02734375 C-310.96274161 363.53653716 -309.20763333 359.30544374 -307.19921875 355.05859375 C-306.8872908 354.39294907 -306.57536285 353.72730438 -306.25398254 353.04148865 C-305.2334046 350.86810686 -304.20711392 348.69749568 -303.1796875 346.52734375 C-302.82936462 345.78533722 -302.47904175 345.04333069 -302.11810303 344.27883911 C-297.16301581 333.79099762 -292.13407838 323.33990373 -286.97714233 312.94970703 C-286.32168338 311.62883793 -285.66805003 310.30706129 -285.01626587 308.984375 C-284.11102014 307.15045973 -283.19637804 305.32119152 -282.28125 303.4921875 C-281.7651416 302.45698975 -281.2490332 301.42179199 -280.71728516 300.35522461 C-279.3671875 298.02734375 -279.3671875 298.02734375 -277.3671875 297.02734375 C-278.76318602 302.77066374 -281.02774781 307.54851498 -283.8671875 312.71484375 C-284.66953375 314.19777444 -285.47162561 315.68084281 -286.2734375 317.1640625 C-286.62728516 317.81076904 -286.98113281 318.45747559 -287.34570312 319.1237793 C-289.30624079 322.7772956 -290.93789656 326.43067126 -292.42285156 330.30688477 C-294.62420752 336.03822151 -296.8752298 341.28779104 -300.33984375 346.390625 C-301.84180966 348.78349084 -302.57082688 351.33196935 -303.3671875 354.02734375 C-303.7384375 354.74921875 -304.1096875 355.47109375 -304.4921875 356.21484375 C-305.58456203 358.14217702 -305.58456203 358.14217702 -305.3671875 361.02734375 C-307.3671875 363.21484375 -307.3671875 363.21484375 -309.3671875 365.02734375 C-305.82721569 363.65035505 -302.39654619 362.13196446 -298.97265625 360.48828125 C-297.94261475 359.99424805 -296.91257324 359.50021484 -295.85131836 358.99121094 C-294.76343018 358.46688477 -293.67554199 357.94255859 -292.5546875 357.40234375 C-291.43263916 356.86254883 -290.31059082 356.32275391 -289.15454102 355.76660156 C-281.74976225 352.19646888 -274.3698455 348.58299266 -267.03515625 344.87109375 C-264.55030115 343.6144159 -262.05317843 342.38879951 -259.54296875 341.18359375 C-245.1821261 334.24180212 -231.55699854 325.94172962 -218.265625 317.13671875 C-216.3671875 316.02734375 -216.3671875 316.02734375 -214.3671875 316.02734375 C-214.3671875 315.36734375 -214.3671875 314.70734375 -214.3671875 314.02734375 C-213.4390625 313.53234375 -212.5109375 313.03734375 -211.5546875 312.52734375 C-207.2037759 310.04486798 -203.24048963 307.08790686 -199.2109375 304.12109375 C-187.84313687 295.75139438 -187.84313687 295.75139438 -183.0546875 293.40234375 C-180.22780001 292.14424433 -180.22780001 292.14424433 -178.1171875 289.65234375 C-175.4954339 287.14976077 -173.79370782 286.21141381 -170.5546875 284.77734375 C-158.740324 279.01805904 -153.18617023 266.50691917 -146.85449219 255.58447266 C-145.47075236 253.20540323 -144.06864285 250.83870368 -142.65625 248.4765625 C-134.55595861 234.90688302 -127.27220867 220.99126583 -120.26367188 206.83203125 C-119.01975417 204.32793549 -117.75393864 201.83499207 -116.4921875 199.33984375 C-114.22333309 194.81439901 -112.05012733 190.24887512 -109.89282227 185.66967773 C-80.65251626 123.66903653 -80.65251626 123.66903653 -61.3671875 106.02734375 C-60.7071875 106.02734375 -60.0471875 106.02734375 -59.3671875 106.02734375 C-59.3671875 105.36734375 -59.3671875 104.70734375 -59.3671875 104.02734375 C-58.0471875 103.69734375 -56.7271875 103.36734375 -55.3671875 103.02734375 C-58.60271848 83.71220424 -65.6264445 67.40027968 -74.37695312 50.02197266 C-88.3671875 22.17054005 -88.3671875 22.17054005 -88.3671875 16.02734375 C-81.10928699 6.98126486 -71.48154645 0.94137504 -61.3046875 -4.28515625 C-60.6562085 -4.62297119 -60.00772949 -4.96078613 -59.33959961 -5.30883789 C-40.54825861 -14.62785236 -16.99057646 -11.58909469 0 0 Z " fill="#2C4FBC" transform="translate(494.3671875,265.97265625)"/>
<path d="M0 0 C1.05859375 1.7734375 1.05859375 1.7734375 2 4 C1.39239518 6.3494053 0.72870472 8.68529088 0 11 C0.33 11.66 0.66 12.32 1 13 C0.72057545 14.67654729 0.39171753 16.34608154 0 18 C-0.66 18 -1.32 18 -2 18 C-1.9690625 19.60875 -1.9690625 19.60875 -1.9375 21.25 C-1.9857984 24.14790424 -2.13155885 26.28612141 -3 29 C-1.68 29 -0.36 29 1 29 C1.74369313 33.71432195 2.15966259 38.30059377 2.28125 43.0703125 C2.31863281 44.37871094 2.35601563 45.68710938 2.39453125 47.03515625 C2.44817026 49.08672535 2.50033721 51.13832786 2.55224609 53.18994141 C2.60426167 55.19182538 2.66144452 57.19357297 2.71875 59.1953125 C2.74904297 60.38141113 2.77933594 61.56750977 2.81054688 62.78955078 C2.90511902 65.93715935 2.90511902 65.93715935 3.62792969 68.68701172 C4.07486877 71.46542438 3.65156898 72.42326437 2.234375 74.8125 C1.83863281 75.49570312 1.44289063 76.17890625 1.03515625 76.8828125 C0.61105469 77.58148438 0.18695312 78.28015625 -0.25 79 C-0.86294922 80.04800781 -0.86294922 80.04800781 -1.48828125 81.1171875 C-2.2836206 82.47258897 -3.08736827 83.82309981 -3.90039062 85.16796875 C-4.85596048 86.76001942 -5.76797795 88.37805389 -6.671875 90 C-7.11015625 90.66 -7.5484375 91.32 -8 92 C-8.66 92 -9.32 92 -10 92 C-11.23921302 94.97411124 -12.30058404 97.85262818 -13 101 C-13.66 101 -14.32 101 -15 101 C-15.08378906 101.825 -15.16757812 102.65 -15.25390625 103.5 C-16.16630023 107.78013091 -17.89748357 111.15826995 -19.9375 115 C-22.35385557 119.5992886 -24.50647256 123.99551014 -26 129 C-26.66 129 -27.32 129 -28 129 C-28.33 130.155 -28.66 131.31 -29 132.5 C-31.20720363 139.12161088 -34.50692794 145.2248265 -37.68408203 151.41699219 C-42.23493831 160.34984181 -46.67377649 169.34034422 -51.13346863 178.31892395 C-53.15274597 182.38255129 -55.17530564 186.44454091 -57.19824219 190.50634766 C-58.22704216 192.57398309 -59.25440267 194.64233544 -60.28027344 196.71142578 C-67.52950821 211.32831652 -75.09053597 225.72989967 -83 240 C-84.21586625 242.20607308 -85.43085638 244.41262586 -86.64547729 246.61938477 C-91.09132156 254.64312783 -95.93684886 262.35417728 -101 270 C-101.63035156 271.00933594 -102.26070312 272.01867187 -102.91015625 273.05859375 C-103.49667969 273.96738281 -104.08320312 274.87617188 -104.6875 275.8125 C-105.18636719 276.60269531 -105.68523438 277.39289063 -106.19921875 278.20703125 C-108.62466384 280.6219538 -110.66048451 280.71509029 -114 281 C-114 280.34 -114 279.68 -114 279 C-114.53882813 278.94972656 -115.07765625 278.89945312 -115.6328125 278.84765625 C-119.14307199 277.59068214 -121.33624769 275.06289101 -123.875 272.4375 C-124.40512695 271.89754395 -124.93525391 271.35758789 -125.48144531 270.80126953 C-136 259.93683735 -136 259.93683735 -136 256 C-136.66 256 -137.32 256 -138 256 C-138.51046875 254.94425781 -138.51046875 254.94425781 -139.03125 253.8671875 C-142.52267257 246.75434258 -146.30165322 239.92923204 -150.36328125 233.12890625 C-151.86013099 230.26738683 -152.71453804 228.1949781 -153 225 C-151.11229323 219.781046 -147.97191578 216.70712139 -144 213 C-144.99 212.67 -145.98 212.34 -147 212 C-147 212.66 -147 213.32 -147 214 C-147.66 214 -148.32 214 -149 214 C-147.54805307 210.2699098 -145.93906075 206.64441236 -144.2421875 203.01953125 C-143.70287598 201.86412842 -143.16356445 200.70872559 -142.60791016 199.51831055 C-142.18339569 198.61065445 -142.18339569 198.61065445 -141.75030518 197.68466187 C-137.34482733 188.26192811 -132.96170012 178.83188196 -128.80029297 169.2980957 C-126.56905945 164.2054077 -124.22178083 159.16893764 -121.86514282 154.13343811 C-118.55263209 147.05269612 -115.27835558 139.95467659 -112.02050781 132.84863281 C-111.34152641 131.36916807 -110.66119273 129.89032318 -109.97949219 128.41210938 C-105.93189895 119.6339158 -102.06428197 110.81671381 -98.43499756 101.85716248 C-96.57270329 97.29365898 -94.52406088 92.89140453 -92.25585938 88.51318359 C-90.13703038 84.27305419 -88.29246581 79.91224634 -86.39526367 75.56958008 C-75.09292226 49.70629351 -62.63055763 27.43688365 -36.4140625 14.6953125 C-33.69494797 13.34508858 -31.10482029 11.92618511 -28.5 10.375 C-19.74187149 5.41695332 -9.64079887 2.73230014 0 0 Z " fill="#789BED" transform="translate(750,200)"/>
<path d="M0 0 C0 0.66 0 1.32 0 2 C1.32257813 2.37125 1.32257813 2.37125 2.671875 2.75 C21.69143379 9.89349626 36.89106695 34.37240973 47 51 C48.11248003 52.75784329 49.22730772 54.5142018 50.34375 56.26953125 C51.56284159 58.2003052 52.78158781 60.13129725 54 62.0625 C54.60134766 63.00448242 55.20269531 63.94646484 55.82226562 64.91699219 C56.37591797 65.80161133 56.92957031 66.68623047 57.5 67.59765625 C58.0053125 68.39695557 58.510625 69.19625488 59.03125 70.01977539 C59.51078125 70.99998657 59.51078125 70.99998657 60 72 C59.67 72.66 59.34 73.32 59 74 C58.47792969 73.3709375 57.95585937 72.741875 57.41796875 72.09375 C46.97587007 59.95092422 32.79535196 49.52618942 16.40258789 47.71264648 C13.78165504 47.60006984 11.18542894 47.58248821 8.5625 47.625 C7.17575073 47.64240234 7.17575073 47.64240234 5.76098633 47.66015625 C-11.80499387 48.08145478 -27.24101586 56.15375902 -40 68 C-40.87785156 68.78632813 -41.75570312 69.57265625 -42.66015625 70.3828125 C-69.32946887 95.47882754 -85.42161544 132.89717748 -101.921875 165.03125 C-104.28744943 169.63654 -106.71152377 174.20347812 -109.1875 178.75 C-113.02480969 185.88230152 -116.46185618 193.19298568 -119.92553711 200.51245117 C-123.14905789 207.29783618 -126.55241337 213.94090476 -130.140625 220.5390625 C-133.23071865 226.29079144 -136.11273831 232.14427238 -139 238 C-139.66 238 -140.32 238 -141 238 C-141.04125 238.99 -141.0825 239.98 -141.125 241 C-141.58811091 244.2714838 -142.59779638 246.05369018 -144.6796875 248.59765625 C-148.31126853 253.2754605 -151.14025011 258.26233143 -154 263.4375 C-154.5561499 264.43104492 -155.1122998 265.42458984 -155.68530273 266.44824219 C-158.65271177 271.75402424 -161.59389526 277.07422541 -164.53515625 282.39453125 C-181.03573437 312.17556083 -199.60570386 341.58710067 -220.4375 368.5625 C-220.98607666 369.2743042 -221.53465332 369.9861084 -222.09985352 370.71948242 C-223.72575734 372.81896881 -225.36003668 374.91148236 -227 377 C-227.48210937 377.61423828 -227.96421875 378.22847656 -228.4609375 378.86132812 C-229.77448861 380.52181999 -231.10182938 382.16977271 -232.4375 383.8125 C-233.17871094 384.72644531 -233.91992188 385.64039063 -234.68359375 386.58203125 C-237 389 -237 389 -239.9765625 390.9375 C-243.36855081 393.25141451 -245.56140121 395.90873308 -247.9375 399.1875 C-248.36498535 399.75758789 -248.7924707 400.32767578 -249.23291016 400.91503906 C-251.19576362 403.53364897 -253.12743333 406.17434427 -255.05859375 408.81640625 C-255.95771484 410.02103516 -255.95771484 410.02103516 -256.875 411.25 C-257.64457031 412.30960938 -257.64457031 412.30960938 -258.4296875 413.390625 C-260.24337847 415.24943266 -261.46408023 415.62674774 -264 416 C-261.91291078 410.58244926 -259.7296907 405.29842525 -257.0703125 400.13671875 C-255.35423757 396.71083194 -253.81014034 393.20824825 -252.24609375 389.7109375 C-250.89542391 386.77248963 -249.4462597 383.89251941 -248 381 C-246.86819217 378.58619184 -245.74248706 376.17039095 -244.625 373.75 C-242.20151829 368.50427657 -239.68542753 363.33617499 -236.9453125 358.24609375 C-235.87668506 355.99095538 -235.87668506 355.99095538 -235.66894531 353.33789062 C-234.86099114 349.30637622 -233.22373601 345.96624914 -231.3515625 342.34765625 C-230.79352432 341.24362709 -230.79352432 341.24362709 -230.22421265 340.11729431 C-229.03202599 337.76177148 -227.82915046 335.41192596 -226.625 333.0625 C-225.07164733 330.01367748 -223.52305844 326.96246194 -221.9765625 323.91015625 C-221.5768071 323.12232758 -221.1770517 322.3344989 -220.7651825 321.52279663 C-217.64832585 315.35253943 -214.65025771 309.13036968 -211.68359375 302.88671875 C-206.27239379 291.50385113 -200.68370728 280.21459663 -195.03833008 268.94628906 C-193.43205269 265.73912365 -191.83009978 262.52982372 -190.22851562 259.3203125 C-184.64100793 248.1420851 -178.9527321 237.02788589 -173.10180664 225.98535156 C-170.65514769 221.3622268 -168.30766125 216.69384998 -166 212 C-161.66566999 203.27198882 -157.1763891 194.6366254 -152.60693359 186.02978516 C-150.6988069 182.43211692 -148.79661739 178.83133306 -146.89453125 175.23046875 C-137.32509667 157.12010368 -127.69875171 139.04147915 -118 121 C-117.11103027 119.34581055 -117.11103027 119.34581055 -116.20410156 117.65820312 C-112.70472011 111.14816998 -109.20010135 104.64098495 -105.69091797 98.13623047 C-104.02222101 95.04121442 -102.35672676 91.94449003 -100.69140625 88.84765625 C-89.31229644 67.71696939 -77.62390325 46.88634858 -64.69677734 26.65576172 C-63.62989943 24.98590589 -62.56711152 23.3134227 -61.51025391 21.63720703 C-54.33913624 10.27161367 -46.73179852 -1.26797624 -33.1875 -5.25 C-22.21091902 -7.5542441 -9.82191383 -5.47855495 0 0 Z " fill="#33A6D9" transform="translate(452,209)"/>
<path d="M0 0 C-3.18720877 9.70649944 -6.85647703 19.00678777 -11.52734375 28.09765625 C-13.8426952 32.66080247 -15.91100369 37.33008245 -18 42 C-18.81111185 43.79229553 -19.62362534 45.58395736 -20.4375 47.375 C-21.05044922 48.72464844 -21.05044922 48.72464844 -21.67578125 50.1015625 C-23.14756743 53.32299419 -24.63591986 56.5365283 -26.125 59.75 C-28.15475596 64.14090066 -30.11538321 68.54545123 -32 73 C-35.16776499 80.20062244 -38.4117952 87.36746376 -41.64453125 94.5390625 C-44.11294257 100.01876598 -46.56375883 105.50592526 -49 111 C-55.84499067 126.42640442 -62.71424348 141.84132751 -69.62216187 157.2396698 C-69.89895782 157.85667252 -70.17575378 158.47367523 -70.4609375 159.109375 C-70.74184235 159.735522 -71.02274719 160.36166901 -71.31216431 161.00679016 C-82.45729774 185.8523142 -93.56099239 210.71613334 -104.6053772 235.60661316 C-106.12564645 239.03273821 -107.65074379 242.45664615 -109.1796875 245.87890625 C-110.89328561 249.73301489 -112.54706357 253.61135936 -114.19506836 257.49389648 C-117.69492941 265.73466611 -121.29205909 273.90270495 -125.12109375 281.99609375 C-127.87927288 287.83933617 -130.52439103 293.73481623 -133.18530273 299.62280273 C-141.69456363 318.41372341 -150.62929146 337.00879931 -159.49772644 355.6318512 C-161.8866176 360.65081374 -164.26196312 365.6758539 -166.625 370.70703125 C-176.93030988 392.58751469 -187.63180983 413.46902511 -211.69775391 422.18164062 C-217.32719148 424.14330967 -222.00555706 425.26163166 -228 425 C-228.33 424.34 -228.66 423.68 -229 423 C-228.37609375 422.93941406 -227.7521875 422.87882812 -227.109375 422.81640625 C-224.76632566 422.19151441 -224.76632566 422.19151441 -223.953125 419.71484375 C-223.72109375 418.79832031 -223.4890625 417.88179687 -223.25 416.9375 C-223.00765625 416.01839844 -222.7653125 415.09929687 -222.515625 414.15234375 C-222.34546875 413.44207031 -222.1753125 412.73179687 -222 412 C-221.34 412 -220.68 412 -220 412 C-218.07794619 407.41664092 -216.54269924 402.72065967 -215 398 C-214.34 398 -213.68 398 -213 398 C-212.83781982 397.47647949 -212.67563965 396.95295898 -212.50854492 396.41357422 C-210.49595559 390.13066997 -207.98720186 384.15126497 -205.3125 378.125 C-204.4067607 376.06154511 -203.50182194 373.99773865 -202.59765625 371.93359375 C-201.93080811 370.41354736 -201.93080811 370.41354736 -201.25048828 368.86279297 C-198.08267101 361.61058186 -195.04023009 354.30637875 -192 347 C-191.49452637 345.78940918 -190.98905273 344.57881836 -190.46826172 343.33154297 C-183.14829915 325.79105745 -176.07116761 308.19133318 -169.40266418 290.39089966 C-159.76474081 264.69095592 -150.05920358 238.9982724 -139.515625 213.65429688 C-138.06830322 210.16468469 -136.63284454 206.67045432 -135.20053101 203.17466736 C-127.37453892 184.08120346 -119.37036378 165.07675926 -111.0625 146.1875 C-110.66964813 145.29415955 -110.27679626 144.40081909 -109.87203979 143.48040771 C-108.76175391 140.95870183 -107.64922909 138.43800363 -106.53515625 135.91796875 C-106.20573029 135.17198929 -105.87630432 134.42600983 -105.53689575 133.65742493 C-103.48337807 129.02834258 -101.29936353 124.52625011 -98.90625 120.06640625 C-98.51566406 119.33486328 -98.12507812 118.60332031 -97.72265625 117.84960938 C-96.90917571 116.32790696 -96.0940771 114.80706841 -95.27734375 113.28710938 C-93.30481532 109.58617732 -91.44417221 105.9479273 -90 102 C-89.34 102 -88.68 102 -88 102 C-86.91145144 99.96804269 -86.04274287 98.20150212 -85.5625 95.9375 C-85 94 -85 94 -83.5 92.625 C-81.73435436 91.01834655 -81.73435436 91.01834655 -81.5859375 88.203125 C-80.96366847 84.80138766 -80.03116237 82.97968336 -78.125 80.125 C-77.49722656 79.18011719 -76.86945313 78.23523438 -76.22265625 77.26171875 C-75.48917969 76.18535156 -74.75570312 75.10898437 -74 74 C-73.1235082 72.69413774 -72.24721646 71.38814118 -71.37109375 70.08203125 C-66.21717636 62.44847576 -60.86143831 55.1105973 -55 48 C-54.3090625 47.113125 -53.618125 46.22625 -52.90625 45.3125 C-52.2153125 44.425625 -51.524375 43.53875 -50.8125 42.625 C-50.20019531 41.83351562 -49.58789062 41.04203125 -48.95703125 40.2265625 C-46.83699825 37.8145489 -44.52266788 35.97800095 -42 34 C-40.80337237 32.54464207 -39.60769643 31.08842497 -38.42578125 29.62109375 C-36.26100889 27.15977723 -33.79331462 25.10607949 -31.30078125 22.984375 C-28.66684271 20.71265891 -26.11829774 18.35919792 -23.5625 16 C-5.98195289 0 -5.98195289 0 0 0 Z " fill="#9770F5" transform="translate(838,196)"/>
<path d="M0 0 C4.96700169 1.3642296 8.72448954 3.64750883 12.8125 6.6875 C13.42706055 7.13665771 14.04162109 7.58581543 14.67480469 8.04858398 C16.45686152 9.35659499 18.22974195 10.67608239 20 12 C20.84433594 12.62648438 21.68867188 13.25296875 22.55859375 13.8984375 C63.25356317 44.80049984 90.83535445 91.2200321 119.02441406 133.00048828 C145.0660319 173.2606645 145.0660319 173.2606645 185 197 C188.66578153 197.54257214 192.29807122 197.85679192 196 198 C191.46861058 209.03735076 176.74459277 216.68813904 166.73046875 221.60546875 C154.63306832 226.63314273 139.99939437 227.2679162 127.703125 222.390625 C122.68039852 219.80667901 118.3195528 216.62306677 114 213 C113.30261719 212.41605469 112.60523438 211.83210937 111.88671875 211.23046875 C102.13832605 202.26351034 95.71137039 189.81717015 89.3984375 178.33203125 C87.71191726 175.26505249 85.98397266 172.22613762 84.2265625 169.19921875 C78.06103794 158.57052183 72.20768673 147.82620392 66.62792969 136.87719727 C63.45767827 130.68259921 60.09818029 124.65625969 56.5090332 118.69360352 C55 116 55 116 54.04760742 113.40209961 C53.13860728 110.90180879 53.13860728 110.90180879 51.109375 109.1706543 C48.28503054 106.26426002 46.86632997 102.92633906 45.25 99.26953125 C44.91000977 98.51967453 44.57001953 97.76981781 44.21972656 96.99723816 C43.13796327 94.6060626 42.06885645 92.20946846 41 89.8125 C40.28207426 88.2203312 39.56333197 86.62853032 38.84375 85.03710938 C36.88404455 80.69663794 34.93971764 76.34943285 33 72 C32.57589844 71.0517334 32.15179688 70.1034668 31.71484375 69.12646484 C30.26813736 65.88443982 28.84686171 62.63761169 27.46484375 59.3671875 C25.95056854 55.88637356 24.28632714 52.50454361 22.5625 49.125 C18.92240514 41.92153563 15.41811541 34.65669253 11.9375 27.375 C7.71199161 18.53779865 3.43688552 9.73316551 -1 1 C-0.67 0.67 -0.34 0.34 0 0 Z " fill="#3A5ED5" transform="translate(425,303)"/>
<path d="M0 0 C7.32799104 6.03337929 13.56723767 14.6964655 14.5793457 24.36865234 C15.33916575 38.42326971 14.47418177 49.3703796 5.09375 60.4921875 C-5.75593163 71.59047068 -20.46642978 77.09684868 -35.98803711 77.35888672 C-54.85543336 77.42365113 -71.32682729 75.08132176 -85.53125 61.46875 C-93.67291289 52.45904217 -96.24696681 41.47579659 -95.9375 29.57421875 C-95.02199723 18.32116385 -90.74664324 8.75081087 -82.59375 0.8671875 C-60.26427023 -17.52398136 -23.01504738 -16.31360711 0 0 Z " fill="#294463" transform="translate(808.65625,733.8828125)"/>
<path d="M0 0 C20 0 20 0 26.01293945 5.26123047 C27.48902321 7.04421616 27.48902321 7.04421616 28.52310181 8.59515381 C30.95576757 12.03657122 33.72551373 14.90292896 36.74682617 17.82861328 C37.73771474 18.81129554 38.72779184 19.79479667 39.71708679 20.77908325 C40.21886633 21.2751218 40.72064587 21.77116035 41.23763084 22.28223038 C42.84186252 23.86866381 44.44217481 25.45896411 46.0415802 27.05026245 C50.57877231 31.5633167 55.12204559 36.07021597 59.66918945 40.57324219 C62.47412652 43.35148828 65.27424422 46.13451576 68.07140541 48.92058945 C69.13290869 49.97588267 70.19630595 51.0292743 71.26161766 52.08072281 C72.73777565 53.53778414 74.2077803 55.00079256 75.67651367 56.46533203 C76.51381516 57.29517609 77.35111664 58.12502014 78.21379089 58.98001099 C80 61 80 61 80 63 C80.66 63 81.32 63 82 63 C82 42.54 82 22.08 82 1 C87.61 1 93.22 1 99 1 C99 28.72 99 56.44 99 85 C80 85 80 85 75.8125 81.9375 C74.85614193 80.63867679 73.91809766 79.32614448 73 78 C71.85763683 76.92855641 70.67941925 75.89450764 69.47460938 74.89379883 C64.26579703 70.43057174 59.44505122 65.60715925 54.59375 60.76171875 C53.61876366 59.78995294 52.64370537 58.81825931 51.6685791 57.84663391 C49.643174 55.82716736 47.61979565 53.80569528 45.59765625 51.78295898 C43.00231172 49.18751183 40.40009434 46.59907128 37.79616547 44.01224041 C35.78883684 42.01599171 33.78603049 40.01525386 31.78450012 38.01319313 C30.82599523 37.05586961 29.86586535 36.10017026 28.90409851 35.14612389 C27.56872325 33.82048905 26.24023189 32.48793041 24.91210938 31.1550293 C23.77582092 30.02087837 23.77582092 30.02087837 22.61657715 28.86381531 C21 27 21 27 21 25 C20.34 25 19.68 25 19 25 C18.67 44.8 18.34 64.6 18 85 C12.06 85 6.12 85 0 85 C0 56.95 0 28.9 0 0 Z " fill="#294361" transform="translate(197,724)"/>
<path d="M0 0 C27.06 0 54.12 0 82 0 C82 4.29 82 8.58 82 13 C60.55 13 39.1 13 17 13 C17 19.93 17 26.86 17 34 C36.8 34 56.6 34 77 34 C77 38.62 77 43.24 77 48 C57.53 48 38.06 48 18 48 C18 54.93 18 61.86 18 69 C39.78 69 61.56 69 84 69 C84 73.95 84 78.9 84 84 C56.28 84 28.56 84 0 84 C0 56.28 0 28.56 0 0 Z " fill="#27415E" transform="translate(338,725)"/>
<path d="M0 0 C1.9375 0.375 1.9375 0.375 4 1 C4.33 1.66 4.66 2.32 5 3 C7.15788312 3.94568583 9.35212122 4.80952045 11.5625 5.625 C12.76003906 6.07101563 13.95757812 6.51703125 15.19140625 6.9765625 C16.11824219 7.31429687 17.04507812 7.65203125 18 8 C18 8.66 18 9.32 18 10 C19.175625 10.433125 19.175625 10.433125 20.375 10.875 C23 12 23 12 25 14 C25 14.99 25 15.98 25 17 C25.53109375 17.07089844 26.0621875 17.14179688 26.609375 17.21484375 C29.97600918 18.32055203 32.49239885 20.40853642 35.25 22.5625 C35.80429687 22.98724609 36.35859375 23.41199219 36.9296875 23.84960938 C38.29089411 24.89398341 39.64605833 25.94622464 41 27 C40.67 27.66 40.34 28.32 40 29 C39.32195312 28.48050781 38.64390625 27.96101563 37.9453125 27.42578125 C25.776135 18.30732554 14.0047741 12.37471542 -1.4375 12.625 C-2.82424927 12.64240234 -2.82424927 12.64240234 -4.23901367 12.66015625 C-21.80499387 13.08145478 -37.24101586 21.15375902 -50 33 C-50.87785156 33.78632813 -51.75570312 34.57265625 -52.66015625 35.3828125 C-79.32946887 60.47882754 -95.42161544 97.89717748 -111.921875 130.03125 C-114.28744943 134.63654 -116.71152377 139.20347812 -119.1875 143.75 C-123.02480969 150.88230152 -126.46185618 158.19298568 -129.92553711 165.51245117 C-133.14905789 172.29783618 -136.55241337 178.94090476 -140.140625 185.5390625 C-143.23071865 191.29079144 -146.11273831 197.14427238 -149 203 C-149.66 203 -150.32 203 -151 203 C-151.04125 203.99 -151.0825 204.98 -151.125 206 C-151.58811091 209.2714838 -152.59779638 211.05369018 -154.6796875 213.59765625 C-158.31126853 218.2754605 -161.14025011 223.26233143 -164 228.4375 C-164.5561499 229.43104492 -165.1122998 230.42458984 -165.68530273 231.44824219 C-168.65271177 236.75402424 -171.59389526 242.07422541 -174.53515625 247.39453125 C-191.03691815 277.17769736 -209.61054498 306.58084246 -230.4375 333.5625 C-230.98172607 334.27140381 -231.52595215 334.98030762 -232.08666992 335.71069336 C-236.89889964 341.94304054 -241.8882324 348.01127001 -247 354 C-247.66 353.67 -248.32 353.34 -249 353 C-248.32195312 352.01902344 -247.64390625 351.03804687 -246.9453125 350.02734375 C-241.70246559 342.42829976 -236.51654827 334.79854903 -231.42919922 327.09448242 C-229.30262444 323.89179411 -227.11896177 320.77734855 -224.75 317.75 C-222.61658678 314.97833573 -220.9448691 312.15614002 -219.3125 309.0625 C-216.71400008 304.14366856 -213.80249576 299.51808443 -210.75 294.875 C-206.40852194 288.26607419 -202.30012608 281.55764513 -198.34863281 274.70849609 C-196.62894503 271.7342344 -194.89139149 268.838967 -192.96875 265.98828125 C-190.30333108 261.94255611 -188.13396248 257.69043977 -185.91210938 253.390625 C-184.55490768 250.79697842 -183.22614745 248.3009545 -181.46484375 245.95703125 C-179.45418878 243.27079621 -178.08020758 240.32051588 -176.625 237.3125 C-173.05348321 230.05384178 -169.36230084 222.86212687 -165.625 215.6875 C-165.12049316 214.7178833 -164.61598633 213.7482666 -164.09619141 212.74926758 C-161.67527584 208.10443474 -159.24797614 203.46345675 -156.79373169 198.83615112 C-151.35764182 188.57508194 -146.06576645 178.25280542 -140.90345001 167.85149956 C-139.65997918 165.34668185 -138.41334703 162.84345833 -137.16595459 160.34059143 C-133.62827629 153.2411773 -130.09542654 146.13936776 -126.56591797 139.03588867 C-124.38572526 134.64857875 -122.20154322 130.26327344 -120.0149765 125.87913704 C-119.19222227 124.22747757 -118.37098017 122.57506385 -117.55136871 120.92184258 C-113.66527584 113.08373973 -109.80024221 105.31007881 -105.16226196 97.88044739 C-103.63949819 95.41673675 -102.36984588 92.86340315 -101.125 90.25 C-98.91224804 85.73181536 -96.52723223 81.34815073 -94 77 C-91.55671711 72.79574614 -89.24519121 68.56563496 -87.125 64.1875 C-83.53784573 56.88647133 -79.41533467 49.92088074 -75.19335938 42.97314453 C-74.15845148 41.26198954 -73.14733125 39.53649082 -72.140625 37.80859375 C-64.23105523 24.94679335 -52.90401099 13.15131748 -39 7 C-38.01 6.34 -37.02 5.68 -36 5 C-34.68 5 -33.36 5 -32 5 C-32 4.34 -32 3.68 -32 3 C-25.1462078 1.54616529 -18.49258312 0.80608479 -11.5 0.8125 C-10.47712891 0.8115332 -10.47712891 0.8115332 -9.43359375 0.81054688 C-6.15236675 0.8464251 -3.13820235 0.99929772 0 2 C0 1.34 0 0.68 0 0 Z " fill="#6BBFE7" transform="translate(462,244)"/>
<path d="M0 0 C5.94 0 11.88 0 18 0 C18.07458695 7.75551287 18.12880853 15.51081333 18.16479492 23.26660156 C18.17980939 25.90075319 18.20022713 28.53488012 18.22631836 31.16894531 C18.26302525 34.97206751 18.27980049 38.77485694 18.29296875 42.578125 C18.30845261 43.74112122 18.32393646 44.90411743 18.33988953 46.10235596 C18.34191156 56.09909741 17.46072538 66.33491628 10.79296875 74.25390625 C-1.54503173 86.26934463 -18.44733298 87.33266483 -34.82519531 87.23413086 C-40.74564173 87.12618839 -46.31255897 86.75920847 -52 85 C-53.36318359 84.5978125 -53.36318359 84.5978125 -54.75390625 84.1875 C-63.60585676 81.29706718 -70.04320505 77.3148226 -74.9921875 69.3203125 C-78.3857113 61.50731584 -78.26583099 53.91613877 -78.1953125 45.53125 C-78.1924826 44.25519897 -78.18965271 42.97914795 -78.18673706 41.66442871 C-78.17747997 38.29752941 -78.15955962 34.93090918 -78.1373291 31.56408691 C-78.11674672 28.11826976 -78.10770904 24.67242361 -78.09765625 21.2265625 C-78.0756663 14.48428897 -78.04117267 7.74218258 -78 1 C-72.06 1 -66.12 1 -60 1 C-59.98598145 3.4284729 -59.98598145 3.4284729 -59.97167969 5.90600586 C-59.93166963 11.93899586 -59.86587888 17.97148184 -59.79248047 24.00415039 C-59.76433489 26.61020409 -59.74308864 29.21634214 -59.72900391 31.82250977 C-59.70748654 35.57872502 -59.66078745 39.33393291 -59.609375 43.08984375 C-59.60814636 44.24645004 -59.60691772 45.40305634 -59.60565186 46.5947113 C-59.48326929 53.42466485 -58.74776732 59.14947013 -55 65 C-52.67994969 67.02642108 -52.67994969 67.02642108 -50 68 C-49.154375 68.37125 -48.30875 68.7425 -47.4375 69.125 C-36.16343089 73.17210173 -21.66646839 72.31528597 -10.515625 68.26953125 C-5.16947484 65.57155174 -2.90184931 61.59105543 -1 56 C-0.67724213 53.23530462 -0.67724213 53.23530462 -0.68115234 50.29174805 C-0.66128265 49.17096359 -0.64141296 48.05017914 -0.62094116 46.89543152 C-0.60938995 45.6963063 -0.59783875 44.49718109 -0.5859375 43.26171875 C-0.56657135 42.02581497 -0.5472052 40.78991119 -0.5272522 39.51655579 C-0.47767445 36.24348033 -0.43637171 32.970439 -0.39910889 29.69720459 C-0.35897981 26.35206543 -0.30776548 23.00711627 -0.2578125 19.66210938 C-0.16183179 13.10817221 -0.07777375 6.55417749 0 0 Z " fill="#28425F" transform="translate(537,724)"/>
<path d="M0 0 C8.58948269 -1.51964174 18.22259759 -2.98071818 25.93945312 1.83398438 C32.36095765 7.20543156 37.70936493 13.54143229 43 20 C44.28430598 21.5166804 45.57535848 23.02768983 46.875 24.53125 C47.40867187 25.15580078 47.94234375 25.78035156 48.4921875 26.42382812 C50.11291372 28.23257445 50.11291372 28.23257445 53 30 C54.00353516 28.88818359 54.00353516 28.88818359 55.02734375 27.75390625 C57.08514853 25.48270763 59.17840182 23.24922266 61.28515625 21.0234375 C63.92081662 18.22379612 66.3802203 15.33209083 68.80859375 12.3515625 C79.47180314 -0.16295269 79.47180314 -0.16295269 87.98046875 -1.078125 C93.37336067 -1.23445943 98.6710843 -0.82160623 104 0 C98.85376128 6.24593581 93.19660787 11.88332423 87.4375 17.5625 C79.38586453 25.47802556 79.38586453 25.47802556 72 34 C69.3125 36.875 69.3125 36.875 67 39 C66.34 39 65.68 39 65 39 C69.64673117 44.37111638 74.38230993 49.64089069 79.25 54.8125 C80.25643555 55.88371094 80.25643555 55.88371094 81.28320312 56.9765625 C87.7335988 63.79807683 94.36943265 70.42901573 101.05566406 77.01879883 C101.83135742 77.78603271 102.60705078 78.5532666 103.40625 79.34375 C104.10041016 80.02630859 104.79457031 80.70886719 105.50976562 81.41210938 C107 83 107 83 107 84 C103.14686872 84.23382288 99.29557088 84.37489753 95.4375 84.5 C94.35146484 84.56703125 93.26542969 84.6340625 92.14648438 84.703125 C84.23696457 84.89545375 84.23696457 84.89545375 81.09790039 82.62304688 C79.5 80.75 79.5 80.75 77.90209961 78.54882812 C75.54700948 75.39298921 72.86716326 72.72686102 70.06640625 69.96875 C68.99530618 68.90117863 67.92434409 67.8334688 66.85351562 66.765625 C65.75656639 65.67702693 64.65956051 64.58848593 63.5625 63.5 C62.4379167 62.38044368 61.31356595 61.26065371 60.18945312 60.140625 C57.46230656 57.42438466 54.73204093 54.71131708 52 52 C47.65409223 55.5940179 43.68669209 59.26953286 39.9375 63.5 C38.97290473 64.53668959 38.00804894 65.57313682 37.04296875 66.609375 C34.89079432 68.94963046 32.9256535 71.37060783 30.98828125 73.890625 C23.3290847 83.29252705 23.3290847 83.29252705 17.12792969 84.61035156 C10.38510151 85.19622794 3.71100452 84.78922384 -3 84 C-1.63212231 80.93353041 -0.07686868 78.82973187 2.30078125 76.46875 C2.94853516 75.82292969 3.59628906 75.17710937 4.26367188 74.51171875 C4.93978516 73.84785156 5.61589844 73.18398438 6.3125 72.5 C6.97701172 71.83613281 7.64152344 71.17226563 8.32617188 70.48828125 C11.74423682 67.10064418 15.21204014 63.97625417 19 61 C19.598125 60.236875 20.19625 59.47375 20.8125 58.6875 C22.71838907 56.34597915 24.52408943 54.62384741 26.8125 52.6875 C30.97898872 49.13855839 34.50688182 45.20265782 38 41 C37.566875 40.51789062 37.13375 40.03578125 36.6875 39.5390625 C36.130625 38.90742187 35.57375 38.27578125 35 37.625 C34.1646875 36.68527344 34.1646875 36.68527344 33.3125 35.7265625 C32 34 32 34 32 32 C31.43667969 31.77441406 30.87335937 31.54882812 30.29296875 31.31640625 C27.3320067 29.61650129 25.56447474 27.50765014 23.3125 24.9375 C17.62525664 18.54098838 11.58753267 12.5264852 5.48754883 6.52514648 C4.77622803 5.82204346 4.06490723 5.11894043 3.33203125 4.39453125 C2.68983643 3.76393799 2.0476416 3.13334473 1.38598633 2.48364258 C0 1 0 1 0 0 Z " fill="#2A4463" transform="translate(585,725)"/>
<path d="M0 0 C4.94739808 4.11933781 9.46120679 9.8483877 10.5625 16.3125 C11.25507421 24.69151259 10.82253365 31.9265975 6.5625 39.3125 C4.125 42.1875 4.125 42.1875 1.5625 44.3125 C0.881875 44.993125 0.20125 45.67375 -0.5 46.375 C-11.50823605 53.63575144 -24.70146126 53.53580676 -37.4375 52.3125 C-46.60741451 50.39025054 -53.96325035 46.00604004 -59.4375 38.3125 C-63.38440878 30.7134723 -64.50576737 21.82246269 -62.28125 13.5390625 C-59.24359815 5.52303679 -54.12982547 0.02767887 -46.4375 -3.6875 C-32.00089662 -9.30883229 -13.02334057 -8.82147031 0 0 Z " fill="#FBFCFC" transform="translate(794.4375,743.6875)"/>
<path d="M0 0 C1.2971296 3.8913888 0.41687381 5.17444071 -1 9 C-1.44203203 10.37568412 -1.88197139 11.75204163 -2.3203125 13.12890625 C-3.94358381 18.01257738 -5.97201466 22.64261806 -8.125 27.3125 C-8.93901475 29.09755929 -9.75281128 30.8827181 -10.56640625 32.66796875 C-10.97648926 33.56435059 -11.38657227 34.46073242 -11.80908203 35.38427734 C-12.89429037 37.76782021 -13.96500457 40.15697696 -15.02734375 42.55078125 C-22.10047044 58.47090262 -29.57102413 74.20615042 -37.02893066 89.94854736 C-37.9593057 91.91403041 -38.88773951 93.88041651 -39.81542969 95.84716797 C-41.43318017 99.27610089 -43.05951174 102.70091459 -44.6875 106.125 C-45.15583252 107.11846436 -45.62416504 108.11192871 -46.10668945 109.13549805 C-48.39911701 113.93337925 -50.81305985 118.51359024 -53.69848633 122.98046875 C-56.22857507 126.90635396 -58.59679216 130.93317018 -61 134.9375 C-61.50789062 135.77990234 -62.01578125 136.62230469 -62.5390625 137.49023438 C-64.9456951 141.49820329 -67.29246299 145.51575615 -69.5078125 149.6328125 C-71.93450288 154.03833041 -74.79638315 157.96935163 -77.875 161.9375 C-78.94542906 163.336155 -80.01444676 164.73589131 -81.08203125 166.13671875 C-81.58943848 166.8023584 -82.0968457 167.46799805 -82.61962891 168.15380859 C-84.34877023 170.4664663 -85.96005218 172.84826828 -87.5625 175.25 C-99.69294436 192.76848154 -116.46060273 207.7501997 -137.5390625 212.58203125 C-149.03939839 214.5352629 -160.03371404 212.09128385 -169.625 205.4375 C-178.38870393 198.54168041 -187.63399795 190.52371249 -192 180 C-191.505 179.01 -191.505 179.01 -191 178 C-190.38253906 178.65226563 -189.76507812 179.30453125 -189.12890625 179.9765625 C-177.91739385 191.54643375 -167.19450991 198.28453055 -150.75 198.625 C-130.27399565 198.50919009 -115.08650722 186.71427911 -101 173 C-100.3694873 172.39526855 -99.73897461 171.79053711 -99.08935547 171.16748047 C-91.21994768 163.61042824 -84.03244818 156.14312605 -78 147 C-77.24847656 145.91976562 -76.49695313 144.83953125 -75.72265625 143.7265625 C-69.00507641 134.00382034 -63.17761935 123.81227778 -57.40771484 113.50683594 C-55.78807634 110.62260976 -54.14586787 107.75190246 -52.49536133 104.88525391 C-49.32017375 99.28183525 -46.26463579 93.64230141 -43.41015625 87.8671875 C-42.70901869 86.45685188 -42.00767274 85.04661984 -41.30615234 83.63647461 C-40.9343988 82.88824432 -40.56264526 82.14001404 -40.17962646 81.36911011 C-38.06119005 77.11453524 -35.92558972 72.86857066 -33.79296875 68.62109375 C-24.71536085 50.52196997 -15.65810449 32.42556439 -7.00927734 14.11669922 C-4.74789027 9.3740224 -2.38587009 4.68113753 0 0 Z " fill="#C7B0F7" transform="translate(722,329)"/>
<path d="M0 0 C-0.83203125 1.94140625 -0.83203125 1.94140625 -2 4 C-3.99054876 4.69437747 -5.99255385 5.35610218 -8 6 C-9.90212173 7.24567223 -11.69134985 8.57929515 -13.484375 9.9765625 C-15 11 -15 11 -17 11 C-17.33 11.99 -17.66 12.98 -18 14 C-19.67324633 15.52216957 -21.41324132 16.97187505 -23.1875 18.375 C-24.18394531 19.17164063 -25.18039062 19.96828125 -26.20703125 20.7890625 C-27.12871094 21.51867187 -28.05039062 22.24828125 -29 23 C-35.04027982 27.87724457 -40.23623671 33.22869684 -45.30859375 39.08984375 C-47.43932218 41.49613983 -49.72769394 43.72769394 -52 46 C-54.03391886 48.30510804 -56.02469282 50.64456498 -58 53 C-58 48.99870664 -56.58626983 48.00566493 -54 45 C-53.195625 44.01 -52.39125 43.02 -51.5625 42 C-49.15769554 39.18461917 -46.61628746 36.61628746 -44 34 C-43.401875 33.195625 -42.80375 32.39125 -42.1875 31.5625 C-39.71635304 28.66772785 -37.03632884 26.70050513 -33.9609375 24.48828125 C-31.76207172 22.88935055 -31.76207172 22.88935055 -29.1875 20.1875 C-27 18 -27 18 -24 17 C-24 16.01 -24 15.02 -24 14 C-41.01397781 25.25818532 -56.59310813 40.54210652 -69.12109375 56.625 C-71.04019556 59.05080852 -73.08304085 61.29676454 -75.1875 63.5625 C-79.17829288 67.97716467 -82.13495174 72.8016738 -85 78 C-88.00617269 74.99382731 -87.59585316 72.17618402 -88 68 C-87.34 68 -86.68 68 -86 68 C-85.94465088 67.43079834 -85.88930176 66.86159668 -85.83227539 66.27514648 C-85.57729285 63.66243776 -85.31991322 61.04997032 -85.0625 58.4375 C-84.93198242 57.09461914 -84.93198242 57.09461914 -84.79882812 55.72460938 C-83.35444352 41.12027616 -83.35444352 41.12027616 -81 37 C-79.95023036 33.85069107 -79.89868405 31.61185544 -79.9375 28.3125 C-79.94652344 27.31863281 -79.95554687 26.32476562 -79.96484375 25.30078125 C-79.97644531 24.54152344 -79.98804688 23.78226563 -80 23 C-80.66 23 -81.32 23 -82 23 C-80.73645088 17.94580351 -79.20575283 15.99382406 -75 13 C-52.57782844 1.00091458 -24.88875335 -0.3895631 0 0 Z " fill="#B4E4FD" transform="translate(840,193)"/>
<path d="M0 0 C-4.06123874 3.23313366 -7.89439252 4.39224902 -12.99609375 5.390625 C-29.26550234 8.61465459 -44.26119069 16.29956134 -57.0625 26.66796875 C-59.94596256 28.9571006 -62.93674788 30.96215855 -66 33 C-66.7425 33.7425 -67.485 34.485 -68.25 35.25 C-69.11625 36.11625 -69.11625 36.11625 -70 37 C-70.66 37 -71.32 37 -72 37 C-72.33 37.99 -72.66 38.98 -73 40 C-73.33 40 -73.66 40 -74 40 C-76.1583195 33.92972642 -76.20852314 28.40629424 -76 22 C-76.66 22 -77.32 22 -78 22 C-76.73645088 16.94580351 -75.20575283 14.99382406 -71 12 C-49.14597336 0.30495379 -24.10003602 -0.35337296 0 0 Z " fill="#91DDFB" transform="translate(836,194)"/>
<path d="M0 0 C0.99 0 1.98 0 3 0 C4.7890625 1.828125 4.7890625 1.828125 6.625 4.25 C7.23601562 5.03890625 7.84703125 5.8278125 8.4765625 6.640625 C9.90016993 8.84539138 10.56525701 10.43854132 11 13 C11.66 13 12.32 13 13 13 C20.63654068 27.57074258 28.18403681 42.17275575 35.3125 57 C36.12883911 58.69733276 36.12883911 58.69733276 36.96166992 60.42895508 C39.10345257 64.91289505 41.19556445 69.36793609 43 74 C40.85690336 76.00300549 38.71071503 78.00249744 36.5625 80 C35.95083984 80.57234375 35.33917969 81.1446875 34.70898438 81.734375 C30.11328125 86 30.11328125 86 29 86 C28.89042969 84.94941406 28.78085937 83.89882813 28.66796875 82.81640625 C27.82394783 75.17099859 26.76545292 68.21085387 24 61 C23.41522734 59.1254484 22.83202292 57.25040718 22.25 55.375 C18.82113542 45.1143825 13.7824765 35.52205658 8.9375 25.875 C7.94412308 23.89137832 6.9516745 21.90730487 5.9609375 19.92236328 C5.32551857 18.65120256 4.68753798 17.38131879 4.046875 16.11279297 C3.16301219 14.35302587 2.29976982 12.58294753 1.4375 10.8125 C0.69306641 9.30623047 0.69306641 9.30623047 -0.06640625 7.76953125 C-1.10684922 4.68302888 -0.9394316 3.07706038 0 0 Z " fill="#3048AA" transform="translate(412,292)"/>
<path d="M0 0 C0 0.33 0 0.66 0 1 C-1.17433594 1.15855469 -2.34867188 1.31710938 -3.55859375 1.48046875 C-29.13212453 4.71669774 -29.13212453 4.71669774 -50.32421875 17.6875 C-50.87722656 18.450625 -51.43023438 19.21375 -52 20 C-52.19448477 17.87562788 -52.38038289 15.75046809 -52.5625 13.625 C-52.66691406 12.44164062 -52.77132812 11.25828125 -52.87890625 10.0390625 C-53 7 -53 7 -52 5 C-35.84020951 -0.52942326 -16.88388356 -0.23413706 0 0 Z " fill="#C0F3FD" transform="translate(810,194)"/>
<path d="M0 0 C3 1 3 1 4.7265625 4.03515625 C5.3679962 5.37350631 6.00020377 6.71630249 6.625 8.0625 C9.55514316 14.16232273 12.65483621 20.11696483 16 26 C16.39783691 26.7000415 16.79567383 27.40008301 17.20556641 28.12133789 C18.13392389 29.74934194 19.06646575 31.3749589 20 33 C19.34 33.99 18.68 34.98 18 36 C18.38459496 37.9476609 18.38459496 37.9476609 19.37109375 39.94140625 C19.69787109 40.68970703 20.02464844 41.43800781 20.36132812 42.20898438 C20.71646484 42.98564453 21.07160156 43.76230469 21.4375 44.5625 C22.13052507 46.10241441 22.8170726 47.64526576 23.49609375 49.19140625 C23.80732178 49.87404541 24.1185498 50.55668457 24.43920898 51.26000977 C25 53 25 53 24 55 C19.78525459 46.90147286 16.14896909 38.576883 12.5625 30.1875 C11.46182936 27.61754248 10.35889045 25.04857449 9.25390625 22.48046875 C8.98615387 21.85687469 8.71840149 21.23328064 8.4425354 20.59078979 C6.10380243 15.17343508 3.61632417 9.83393266 1.08178711 4.50512695 C0 2 0 2 0 0 Z " fill="#7C7BF1" transform="translate(476,413)"/>
<path d="M0 0 C0.33 0.66 0.66 1.32 1 2 C-0.17807577 4.62687098 -1.4108009 7.1443976 -2.75 9.6875 C-5.36686935 14.72964647 -7.79809307 19.76251617 -10 25 C-10.60959299 26.25758554 -11.23185334 27.50923919 -11.875 28.75 C-13.50639581 31.962978 -15.02051233 35.21426664 -16.5 38.5 C-18.5572301 43.06113707 -20.73021896 47.5418245 -23 52 C-23.75103217 53.49948347 -24.50105134 54.99947479 -25.25 56.5 C-25.8275 57.655 -26.405 58.81 -27 60 C-27.89026586 57.54292672 -28.10230953 56.31360698 -27.2807312 53.79524231 C-26.68713303 52.59685982 -26.68713303 52.59685982 -26.08154297 51.37426758 C-25.41492142 50.00683159 -25.41492142 50.00683159 -24.73483276 48.61177063 C-23.99597336 47.14298714 -23.99597336 47.14298714 -23.2421875 45.64453125 C-22.74212189 44.62832199 -22.24205627 43.61211273 -21.72683716 42.56510925 C-20.12062463 39.30863156 -18.49779768 36.06073914 -16.875 32.8125 C-15.80364723 30.64309155 -14.73332252 28.47317507 -13.6640625 26.30273438 C-9.27949005 17.43340195 -4.88893388 8.60474615 0 0 Z " fill="#1B5EA5" transform="translate(216,563)"/>
<path d="M0 0 C0.66 0.33 1.32 0.66 2 1 C0.33424841 2.52183555 -1.33265671 4.0424085 -3 5.5625 C-3.50039795 6.01923096 -4.0007959 6.47596191 -4.51635742 6.9465332 C-7.40758842 9.57790944 -10.33470493 12.15492866 -13.3125 14.6875 C-16.40204672 17.36720889 -19.03793353 20.23064714 -21.63671875 23.3828125 C-23.61496927 25.7295051 -25.83048261 27.83048261 -28 30 C-30.03424429 32.3048326 -32.02468796 34.64455918 -34 37 C-34 32.99870664 -32.58626983 32.00566493 -30 29 C-29.195625 28.01 -28.39125 27.02 -27.5625 26 C-25.15769554 23.18461917 -22.61628746 20.61628746 -20 18 C-19.401875 17.195625 -18.80375 16.39125 -18.1875 15.5625 C-15.71617609 12.66752056 -13.03373671 10.70044581 -9.9609375 8.484375 C-7.40208419 6.54739441 -5.23387003 4.29769489 -3 2 C-2.01 1.34 -1.02 0.68 0 0 Z " fill="#B6CAFB" transform="translate(816,209)"/>
<path d="M0 0 C2.0625 0.4375 2.0625 0.4375 4 1 C3.01 1 2.02 1 1 1 C1.08378906 1.72445312 1.16757812 2.44890625 1.25390625 3.1953125 C1.79527805 8.3349182 2.23721798 12.91365942 1 18 C1.66 18 2.32 18 3 18 C4.20883939 22.31447553 4.64937235 26.54716103 4 31 C2 33.0625 2 33.0625 0 34 C0.24169922 33.16662109 0.24169922 33.16662109 0.48828125 32.31640625 C1.04434722 29.79925267 1.16807052 27.5138488 1.1875 24.9375 C1.20876953 23.65166016 1.20876953 23.65166016 1.23046875 22.33984375 C1.15846085 19.72801691 1.15846085 19.72801691 -1 17 C-1.16856854 14.25147572 -1.2333134 11.61898141 -1.1875 8.875 C-1.18685547 8.13378906 -1.18621094 7.39257812 -1.18554688 6.62890625 C-1.14039459 1.14039459 -1.14039459 1.14039459 0 0 Z " fill="#E1F8FD" transform="translate(757,198)"/>
<path d="M0 0 C1.2971296 3.8913888 0.41687381 5.17444071 -1 9 C-1.50287732 10.54073051 -2.00273071 12.08245037 -2.5 13.625 C-4.32149732 19.2676819 -5.58627292 22.15066996 -11 25 C-8.4621689 16.11759114 -4.22230349 8.17381793 0 0 Z " fill="#CCC6FB" transform="translate(722,329)"/>
<path d="M0 0 C0.99 0.66 1.98 1.32 3 2 C3 2.99 3 3.98 3 5 C3.79664063 5.10634766 3.79664063 5.10634766 4.609375 5.21484375 C7.97600918 6.32055203 10.49239885 8.40853642 13.25 10.5625 C13.80429687 10.98724609 14.35859375 11.41199219 14.9296875 11.84960938 C16.29089411 12.89398341 17.64605833 13.94622464 19 15 C18.67 15.66 18.34 16.32 18 17 C17.32195312 16.48050781 16.64390625 15.96101563 15.9453125 15.42578125 C9.88794344 10.88694931 3.90100803 7.11368692 -3 4 C-3 3.34 -3 2.68 -3 2 C-2.01 2 -1.02 2 0 2 C0 1.34 0 0.68 0 0 Z " fill="#56BDF4" transform="translate(484,256)"/>
<path d="M0 0 C1.9375 0.375 1.9375 0.375 4 1 C4.33 1.66 4.66 2.32 5 3 C7.30965848 4.05352843 9.6429774 5.05719096 12 6 C8.59095931 7.1363469 8.1969437 6.89206271 5 5.6875 C-3.05657195 3.06610793 -11.60568977 2.73256301 -20 2 C-20 1.67 -20 1.34 -20 1 C-17.41659616 0.97296438 -14.83347692 0.95314389 -12.25 0.9375 C-11.52039063 0.92912109 -10.79078125 0.92074219 -10.0390625 0.91210938 C-6.51329442 0.89608316 -3.38965084 1.04707287 0 2 C0 1.34 0 0.68 0 0 Z " fill="#54C3F7" transform="translate(462,244)"/>
<path d="M0 0 C3 1 3 1 4.5703125 3.73046875 C5.33988281 5.44169922 5.33988281 5.44169922 6.125 7.1875 C6.64320313 8.31542969 7.16140625 9.44335938 7.6953125 10.60546875 C8.91736493 13.78500036 9.58077275 16.6308444 10 20 C6.56797698 17.22270137 5.08977666 13.35938189 3.3125 9.4375 C2.99216797 8.75236328 2.67183594 8.06722656 2.34179688 7.36132812 C0 2.27328758 0 2.27328758 0 0 Z " fill="#6E76EB" transform="translate(476,413)"/>
<path d="M0 0 C1.0625 1.8125 1.0625 1.8125 2 4 C1.67 4.99 1.34 5.98 1 7 C0.34 7 -0.32 7 -1 7 C-1 9.64 -1 12.28 -1 15 C-1.66 14.01 -2.32 13.02 -3 12 C-3.99 13.485 -3.99 13.485 -5 15 C-5.66 15 -6.32 15 -7 15 C-5.58192622 10.52761347 -3.88695626 6.28853694 -2 2 C-1.34 2 -0.68 2 0 2 C0 1.34 0 0.68 0 0 Z " fill="#ABA5FA" transform="translate(755,283)"/>
<path d="M0 0 C3.10140072 2.91572928 5.48748213 5.9366042 7.8125 9.5 C8.43769531 10.4384375 9.06289063 11.376875 9.70703125 12.34375 C11 15 11 15 10.69921875 17.34375 C10.46847656 17.8903125 10.23773437 18.436875 10 19 C8.89500435 17.27136297 7.79104086 15.54206612 6.6875 13.8125 C6.07261719 12.84957031 5.45773437 11.88664062 4.82421875 10.89453125 C4.22222656 9.93933594 3.62023437 8.98414063 3 8 C2.42894531 7.11699219 1.85789062 6.23398437 1.26953125 5.32421875 C0 3 0 3 0 0 Z " fill="#9E90F1" transform="translate(520,492)"/>
<path d="M0 0 C0.66 0 1.32 0 2 0 C0.54870359 3.7956983 -1.154775 7.38052018 -3 11 C-3.73022095 12.45780572 -4.45936268 13.91615245 -5.1875 15.375 C-5.79166667 16.58333333 -6.39583333 17.79166667 -7 19 C-7.76849965 16.74457325 -8.15628879 15.46093824 -7.37915039 13.16894531 C-7.03875732 12.56147461 -6.69836426 11.95400391 -6.34765625 11.328125 C-5.98349609 10.66425781 -5.61933594 10.00039063 -5.24414062 9.31640625 C-4.85419922 8.63449219 -4.46425781 7.95257812 -4.0625 7.25 C-3.48338867 6.20392578 -3.48338867 6.20392578 -2.89257812 5.13671875 C-1.93926363 3.4183988 -0.97104654 1.70836196 0 0 Z " fill="#1C549E" transform="translate(196,604)"/>
<path d="M0 0 C0.33 0.66 0.66 1.32 1 2 C1.66 2.33 2.32 2.66 3 3 C1.71632558 4.83893824 0.42283239 6.67102625 -0.875 8.5 C-1.95394531 10.03140625 -1.95394531 10.03140625 -3.0546875 11.59375 C-3.69664062 12.3878125 -4.33859375 13.181875 -5 14 C-5.66 14 -6.32 14 -7 14 C-5.23570801 9.02790438 -2.6060834 4.56561939 0 0 Z " fill="#48C6EE" transform="translate(362,279)"/>
<path d="M0 0 C4.29 0 8.58 0 13 0 C11 4 11 4 8.0625 5.1875 C7.051875 5.455625 6.04125 5.72375 5 6 C4.01 6.33 3.02 6.66 2 7 C3 4 3 4 6 2 C3.03 1.505 3.03 1.505 0 1 C0 0.67 0 0.34 0 0 Z " fill="#B0DAFB" transform="translate(827,193)"/>
<path d="M0 0 C1.32 0.33 2.64 0.66 4 1 C3.27683594 1.67095703 3.27683594 1.67095703 2.5390625 2.35546875 C-2.30796815 6.95594955 -2.30796815 6.95594955 -5 13 C-5.66 12.01 -6.32 11.02 -7 10 C-5.68 7.36 -4.36 4.72 -3 2 C-2.01 2 -1.02 2 0 2 C0 1.34 0 0.68 0 0 Z " fill="#544EC0" transform="translate(603,412)"/>
<path d="M0 0 C0.66 0.33 1.32 0.66 2 1 C1.24074219 1.68707031 0.48148438 2.37414062 -0.30078125 3.08203125 C-1.30472383 3.99214742 -2.30862807 4.9023059 -3.3125 5.8125 C-3.81201172 6.26431641 -4.31152344 6.71613281 -4.82617188 7.18164062 C-6.84937615 9.01726305 -8.84966801 10.84152362 -10.73046875 12.82421875 C-12 14 -12 14 -14 14 C-12.57904457 10.6673468 -10.8834126 8.76393478 -8.125 6.4375 C-7.44695313 5.85871094 -6.76890625 5.27992188 -6.0703125 4.68359375 C-4.08348175 3.06788799 -2.06062859 1.5200601 0 0 Z " fill="#A7C8FC" transform="translate(816,209)"/>
<path d="M0 0 C3.30653354 1.41088411 5.1547817 3.05531369 7.4375 5.8125 C10.16564361 9.0404113 12.96702285 12.05893125 16 15 C15.67 15.66 15.34 16.32 15 17 C12.49195282 14.54976242 9.9949924 12.08852402 7.5 9.625 C6.78457031 8.92632813 6.06914063 8.22765625 5.33203125 7.5078125 C4.65527344 6.8375 3.97851562 6.1671875 3.28125 5.4765625 C2.65283203 4.85861816 2.02441406 4.24067383 1.37695312 3.60400391 C0 2 0 2 0 0 Z " fill="#213956" transform="translate(645,783)"/>
<path d="M0 0 C1 3 1 3 -0.328125 5.91796875 C-1.27945312 7.53638672 -1.27945312 7.53638672 -2.25 9.1875 C-2.87390625 10.27417969 -3.4978125 11.36085938 -4.140625 12.48046875 C-4.75421875 13.31191406 -5.3678125 14.14335937 -6 15 C-6.99 15 -7.98 15 -9 15 C-7.61219205 11.10993227 -5.7847773 8.03441292 -3.375 4.6875 C-2.74335938 3.80449219 -2.11171875 2.92148437 -1.4609375 2.01171875 C-0.97882813 1.34785156 -0.49671875 0.68398438 0 0 Z " fill="#27A2D8" transform="translate(353,346)"/>
<path d="M0 0 C0.99 1.32 1.98 2.64 3 4 C1.35 5.98 -0.3 7.96 -2 10 C-1.01 10.99 -0.02 11.98 1 13 C-0.98 13 -2.96 13 -5 13 C-3.58192622 8.52761347 -1.88695626 4.28853694 0 0 Z " fill="#2C61AC" transform="translate(187,621)"/>
<path d="M0 0 C0.66 0.33 1.32 0.66 2 1 C-0.97 4.3 -3.94 7.6 -7 11 C-7.66 10.67 -8.32 10.34 -9 10 C-8.07265428 8.51444617 -7.13275187 7.03672494 -6.1875 5.5625 C-5.66542969 4.73878906 -5.14335937 3.91507813 -4.60546875 3.06640625 C-3 1 -3 1 0 0 Z " fill="#2570AD" transform="translate(213,598)"/>
<path d="M0 0 C-1.42722659 1.1998278 -2.86715776 2.3845576 -4.3125 3.5625 C-5.51326172 4.55443359 -5.51326172 4.55443359 -6.73828125 5.56640625 C-7.85783203 6.27603516 -7.85783203 6.27603516 -9 7 C-9.99 6.67 -10.98 6.34 -12 6 C-8.70729291 1.36581964 -5.87436551 -1.95812184 0 0 Z " fill="#2D69C7" transform="translate(328,551)"/>
<path d="M0 0 C1.32830615 3.98491845 0.23204404 5.40048548 -1.4375 9.1875 C-1.91058594 10.27417969 -2.38367188 11.36085938 -2.87109375 12.48046875 C-3.42990234 13.72763672 -3.42990234 13.72763672 -4 15 C-4.99 15 -5.98 15 -7 15 C-3.535 7.575 -3.535 7.575 0 0 Z " fill="#2865AA" transform="translate(203,588)"/>
<path d="M0 0 C2.30874711 2.16614803 4.05290181 4.39206608 5.75 7.0625 C6.19859375 7.75472656 6.6471875 8.44695312 7.109375 9.16015625 C7.40328125 9.76730469 7.6971875 10.37445313 8 11 C7.67 11.66 7.34 12.32 7 13 C5.63080716 11.59785066 4.28001291 10.17771527 2.9375 8.75 C2.18339844 7.96109375 1.42929687 7.1721875 0.65234375 6.359375 C-1 4 -1 4 -0.74609375 1.703125 C-0.49988281 1.14109375 -0.25367188 0.5790625 0 0 Z " fill="#54BCF6" transform="translate(504,270)"/>
<path d="M0 0 C0 3.69942045 -0.85819127 4.40155392 -3.25 7.125 C-3.85328125 7.82882812 -4.4565625 8.53265625 -5.078125 9.2578125 C-7.10469267 11.09490433 -8.32969429 11.6100881 -11 12 C-7.49102731 7.81576108 -3.91939465 3.80411834 0 0 Z " fill="#415C77" transform="translate(655,737)"/>
<path d="M0 0 C0.66 0.33 1.32 0.66 2 1 C1.44570313 1.53109375 0.89140625 2.0621875 0.3203125 2.609375 C-0.40414063 3.31578125 -1.12859375 4.0221875 -1.875 4.75 C-2.95394531 5.79414063 -2.95394531 5.79414063 -4.0546875 6.859375 C-5.86479679 8.85122217 -6.94848086 10.5427658 -8 13 C-8.66 12.01 -9.32 11.02 -10 10 C-6.7 6.7 -3.4 3.4 0 0 Z " fill="#212E98" transform="translate(415,273)"/>
<path d="M0 0 C3.96 0 7.92 0 12 0 C7.78492722 3.16130459 6.93928888 3.3367697 2 3 C2 2.34 2 1.68 2 1 C1.34 0.67 0.68 0.34 0 0 Z " fill="#6ED4F8" transform="translate(824,194)"/>
<path d="M0 0 C2 2 2 2 2.125 5.125 C2.08375 6.07375 2.0425 7.0225 2 8 C1.34 7.01 0.68 6.02 0 5 C-1.65 6.65 -3.3 8.3 -5 10 C-3.66511872 6.40608886 -2.03977277 3.24509304 0 0 Z " fill="#C9DDFC" transform="translate(751,275)"/>
<path d="M0 0 C0.66 0.33 1.32 0.66 2 1 C1.67 3.97 1.34 6.94 1 10 C1.66 10.33 2.32 10.66 3 11 C1.02 11.66 -0.96 12.32 -3 13 C-2.690625 12.154375 -2.38125 11.30875 -2.0625 10.4375 C-0.98461179 6.9502146 -0.43418696 3.61822465 0 0 Z " fill="#E4F6FC" transform="translate(748,218)"/>
<path d="M0 0 C0.66 0.33 1.32 0.66 2 1 C1.34 1.66 0.68 2.32 0 3 C0.66 3.66 1.32 4.32 2 5 C-0.97 5 -3.94 5 -7 5 C-2.25 1.125 -2.25 1.125 0 0 Z " fill="#153D92" transform="translate(192,628)"/>
<path d="M0 0 C1 3 1 3 0.00390625 5.04296875 C-0.47175781 5.75066406 -0.94742188 6.45835937 -1.4375 7.1875 C-1.91058594 7.90292969 -2.38367188 8.61835937 -2.87109375 9.35546875 C-3.24363281 9.89816406 -3.61617187 10.44085937 -4 11 C-5.125 7.25 -5.125 7.25 -4 5 C-3.34 5 -2.68 5 -2 5 C-1.34 3.35 -0.68 1.7 0 0 Z " fill="#8152EF" transform="translate(620,603)"/>
<path d="M0 0 C0.66 0 1.32 0 2 0 C1.67 4.29 1.34 8.58 1 13 C0.01 12.01 -0.98 11.02 -2 10 C-1.67 8.906875 -1.34 7.81375 -1 6.6875 C0.13086649 3.15421116 0.13086649 3.15421116 0 0 Z " fill="#E5FAFD" transform="translate(751,200)"/>
<path d="M0 0 C0.66 0.33 1.32 0.66 2 1 C1.34 2.98 0.68 4.96 0 7 C-0.66 7 -1.32 7 -2 7 C-2.33 7.66 -2.66 8.32 -3 9 C-3.33 8.34 -3.66 7.68 -4 7 C-3.22265625 5.2734375 -3.22265625 5.2734375 -2.0625 3.375 C-1.381875 2.26125 -0.70125 1.1475 0 0 Z " fill="#88AFFB" transform="translate(724,322)"/>
<path d="M0 0 C1.0625 1.8125 1.0625 1.8125 2 4 C1.67 4.99 1.34 5.98 1 7 C-0.32 7 -1.64 7 -3 7 C-2.67 5.35 -2.34 3.7 -2 2 C-1.34 2 -0.68 2 0 2 C0 1.34 0 0.68 0 0 Z " fill="#C1C0FB" transform="translate(755,283)"/>
<path d="M0 0 C0.33 0.66 0.66 1.32 1 2 C1.66 2.33 2.32 2.66 3 3 C2.01 4.485 2.01 4.485 1 6 C-0.32 5.67 -1.64 5.34 -3 5 C-2.01 3.35 -1.02 1.7 0 0 Z " fill="#54CEF2" transform="translate(362,279)"/>
</svg>
