<svg width="26" height="26" viewBox="0 0 26 26" fill="none" xmlns="http://www.w3.org/2000/svg">
<path d="M21.9575 14.4997L21.9516 14.4806L18.6564 7.65153C18.5095 7.26588 18.0719 7 17.5756 7H4.21859C3.71931 7 3.27584 7.27067 3.13487 7.66111L0.0540633 14.4207L0.045253 14.4375L0.0393788 14.4566C0.00119915 14.574 -0.0105485 14.6938 0.0100098 14.8111C0.00707294 14.8495 0.00413613 14.8878 0.00413613 14.9261V23.6906C0.00491274 24.0766 0.193291 24.4467 0.527994 24.7197C0.862697 24.9927 1.31643 25.1463 1.78977 25.1469H20.21C21.1939 25.1469 21.9956 24.493 21.9986 23.6906V14.9261C21.9986 14.895 21.9986 14.8638 21.9956 14.8375C22.0074 14.7201 21.9956 14.6075 21.9575 14.4997ZM13.2701 13.4698L13.2613 13.8458C13.2378 14.9213 12.3274 15.6447 10.997 15.6447C10.3479 15.6447 9.78989 15.4746 9.38753 15.1513C8.98518 14.8279 8.76491 14.3776 8.75316 13.8458L8.74435 13.4698H2.70021L5.03505 8.83961H16.7591L19.1586 13.4698H13.2701ZM2.25674 15.3094H6.87648C7.59015 16.6771 9.10852 17.4843 10.9999 17.4843C11.9896 17.4843 12.9089 17.2592 13.6519 16.8328C14.3039 16.4591 14.812 15.9369 15.1409 15.3094H19.7372V23.3073H2.25674V15.3094Z" fill="#DBE4ED"/>
<circle cx="19.5" cy="6.5" r="5.25" fill="#54CD40" stroke="#133C65" stroke-width="1.5"/>
</svg>
