<svg width="18" height="18" viewBox="0 0 18 18" fill="none" xmlns="http://www.w3.org/2000/svg">
<path d="M1 4.21001C1 3.0899 1 2.52985 1.21799 2.10203C1.40973 1.7257 1.71569 1.41974 2.09202 1.228C2.51984 1.01001 3.0799 1.01001 4.2 1.01001H7V7.01001H1V4.21001Z" stroke="#6F767E" stroke-width="2" stroke-linecap="round" stroke-linejoin="round"/>
<path d="M11 1.01001H13.8C14.9201 1.01001 15.4802 1.01001 15.908 1.228C16.2843 1.41974 16.5903 1.7257 16.782 2.10203C17 2.52985 17 3.0899 17 4.21001V7.01001H11V1.01001Z" stroke="#6F767E" stroke-width="2" stroke-linecap="round" stroke-linejoin="round"/>
<path d="M1 11.01H7V17.01H4.2C3.0799 17.01 2.51984 17.01 2.09202 16.792C1.71569 16.6003 1.40973 16.2943 1.21799 15.918C1 15.4902 1 14.9301 1 13.81V11.01Z" stroke="#6F767E" stroke-width="2" stroke-linecap="round" stroke-linejoin="round"/>
<path d="M11 11.01H17V13.81C17 14.9301 17 15.4902 16.782 15.918C16.5903 16.2943 16.2843 16.6003 15.908 16.792C15.4802 17.01 14.9201 17.01 13.8 17.01H11V11.01Z" stroke="#6F767E" stroke-width="2" stroke-linecap="round" stroke-linejoin="round"/>
</svg>
