<svg width="14" height="14" viewBox="0 0 14 14" fill="none" xmlns="http://www.w3.org/2000/svg">
<path d="M3.00022 9.00012C2.44689 9.00012 1.94689 9.22678 1.58689 9.58678C0.800224 10.3735 0.333557 13.6668 0.333557 13.6668C0.333557 13.6668 3.62689 13.2001 4.41356 12.4135C4.77356 12.0535 5.00022 11.5535 5.00022 11.0001C5.00022 9.89345 4.10689 9.00012 3.00022 9.00012ZM3.47356 11.4735C3.28689 11.6601 2.02689 11.9801 2.02689 11.9801C2.02689 11.9801 2.34022 10.7268 2.53356 10.5335C2.64689 10.4068 2.81356 10.3335 3.00022 10.3335C3.36689 10.3335 3.66689 10.6335 3.66689 11.0001C3.66689 11.1868 3.59356 11.3535 3.47356 11.4735ZM10.6136 8.10012C14.8536 3.86012 13.4402 0.560118 13.4402 0.560118C13.4402 0.560118 10.1402 -0.853216 5.90022 3.38678L4.24022 3.05345C3.80689 2.96678 3.35356 3.10678 3.03356 3.42012L0.333557 6.12678L3.66689 7.55345L6.44689 10.3335L7.87356 13.6668L10.5736 10.9668C10.8869 10.6535 11.0269 10.2001 10.9402 9.76012L10.6136 8.10012ZM3.94022 6.22012L2.66689 5.67345L3.98022 4.36012L4.94022 4.55345C4.56022 5.10678 4.22022 5.68678 3.94022 6.22012ZM8.32689 11.3335L7.78022 10.0601C8.31356 9.78012 8.89356 9.44012 9.44022 9.06012L9.63356 10.0201L8.32689 11.3335ZM9.66689 7.16012C8.78689 8.04012 7.41356 8.76012 6.97356 8.98012L5.02022 7.02678C5.23356 6.59345 5.95356 5.22012 6.84022 4.33345C9.96022 1.21345 12.3269 1.67345 12.3269 1.67345C12.3269 1.67345 12.7869 4.04012 9.66689 7.16012ZM9.00022 6.33345C9.73356 6.33345 10.3336 5.73345 10.3336 5.00012C10.3336 4.26678 9.73356 3.66678 9.00022 3.66678C8.26689 3.66678 7.66689 4.26678 7.66689 5.00012C7.66689 5.73345 8.26689 6.33345 9.00022 6.33345Z" fill="#6F767E"/>
</svg>
