<svg width="12" height="14" viewBox="0 0 12 14" fill="none" xmlns="http://www.w3.org/2000/svg">
<path d="M7.33341 0.332031H2.00008C1.26675 0.332031 0.666748 0.932031 0.666748 1.66536V12.332C0.666748 13.0654 1.26675 13.6654 2.00008 13.6654H10.0001C10.7334 13.6654 11.3334 13.0654 11.3334 12.332V4.33203L7.33341 0.332031ZM10.0001 12.332H2.00008V1.66536H7.33341V4.33203H10.0001V12.332ZM6.00008 10.332C5.26675 10.332 4.66675 9.73203 4.66675 8.9987V5.33203C4.66675 5.14536 4.81341 4.9987 5.00008 4.9987C5.18675 4.9987 5.33341 5.14536 5.33341 5.33203V8.9987H6.66675V5.33203C6.66675 4.41203 5.92008 3.66536 5.00008 3.66536C4.08008 3.66536 3.33341 4.41203 3.33341 5.33203V8.9987C3.33341 10.472 4.52675 11.6654 6.00008 11.6654C7.47341 11.6654 8.66675 10.472 8.66675 8.9987V6.33203H7.33341V8.9987C7.33341 9.73203 6.73341 10.332 6.00008 10.332Z" fill="#6F767E"/>
</svg>
