<svg width="22" height="22" viewBox="0 0 22 22" fill="none" xmlns="http://www.w3.org/2000/svg">
<path d="M11 0.5C5.20156 0.5 0.5 5.20156 0.5 11C0.5 16.7984 5.20156 21.5 11 21.5C16.7984 21.5 21.5 16.7984 21.5 11C21.5 5.20156 16.7984 0.5 11 0.5ZM11 19.7188C6.18594 19.7188 2.28125 15.8141 2.28125 11C2.28125 6.18594 6.18594 2.28125 11 2.28125C15.8141 2.28125 19.7188 6.18594 19.7188 11C19.7188 15.8141 15.8141 19.7188 11 19.7188Z" fill="#133C65"/>
<path d="M11 0.5C5.20156 0.5 0.5 5.20156 0.5 11C0.5 16.7984 5.20156 21.5 11 21.5C16.7984 21.5 21.5 16.7984 21.5 11C21.5 5.20156 16.7984 0.5 11 0.5ZM11 19.7188C6.18594 19.7188 2.28125 15.8141 2.28125 11C2.28125 6.18594 6.18594 2.28125 11 2.28125C15.8141 2.28125 19.7188 6.18594 19.7188 11C19.7188 15.8141 15.8141 19.7188 11 19.7188Z" fill="#212121"/>
<path d="M13.1395 6.6758L7.37392 10.8477C7.34997 10.8649 7.33046 10.8876 7.317 10.9139C7.30354 10.9402 7.29652 10.9693 7.29652 10.9988C7.29652 11.0284 7.30354 11.0575 7.317 11.0838C7.33046 11.11 7.34997 11.1328 7.37392 11.15L13.1395 15.3219C13.2637 15.411 13.4372 15.3219 13.4372 15.1696V14.0703C13.4372 13.8313 13.3223 13.6039 13.1278 13.4633L9.72001 11L13.1278 8.5344C13.3223 8.39377 13.4372 8.16877 13.4372 7.92736V6.82815C13.4372 6.6758 13.2637 6.58674 13.1395 6.6758Z" fill="#133C65"/>
<path d="M13.1395 6.6758L7.37392 10.8477C7.34997 10.8649 7.33046 10.8876 7.317 10.9139C7.30354 10.9402 7.29652 10.9693 7.29652 10.9988C7.29652 11.0284 7.30354 11.0575 7.317 11.0838C7.33046 11.11 7.34997 11.1328 7.37392 11.15L13.1395 15.3219C13.2637 15.411 13.4372 15.3219 13.4372 15.1696V14.0703C13.4372 13.8313 13.3223 13.6039 13.1278 13.4633L9.72001 11L13.1278 8.5344C13.3223 8.39377 13.4372 8.16877 13.4372 7.92736V6.82815C13.4372 6.6758 13.2637 6.58674 13.1395 6.6758Z" fill="#212121"/>
</svg>
