<svg xmlns="http://www.w3.org/2000/svg" width="198" height="93" viewBox="0 0 198 93" fill="none">
  <g clip-path="url(#clip0_514_1397)">
    <path d="M180.909 37.4548C179.001 37.4548 177.432 36.0543 177.144 34.2166L172.803 34.2166L171.631 39.213L163.734 39.213L162.562 34.2166L157.178 34.2166L156.383 37.584L148.486 37.584L147.692 34.2166L142.308 34.2166L141.136 39.213L133.239 39.213L132.067 34.2166L99.1675 34.2166C99.1675 31.9319 97.3199 30.0843 95.0352 30.0843L75.1686 30.0843L75.1686 63.0828L95.0352 63.0828C97.3199 63.0828 99.1675 61.2352 99.1675 58.9505L182.707 58.9505C185.19 58.9505 187.455 57.5301 188.528 55.2951L190.693 50.7953L197.905 42.3818L190.693 34.2265L184.663 34.2265C184.375 36.0542 182.806 37.4648 180.899 37.4648L180.909 37.4548Z" fill="#133C65"/>
    <path d="M101.035 54.4309L188.965 54.4309L190.494 51.2622L101.045 51.2622C100.171 51.2622 99.4556 51.9674 99.4556 52.8515C99.4556 53.7256 100.161 54.4408 101.045 54.4408L101.035 54.4309Z" fill="#133C65"/>
    <path d="M101.76 47.8848L193.216 47.8848L197.179 43.2658L101.76 43.2658C100.489 43.2658 99.4456 44.2989 99.4456 45.5803C99.4456 46.8518 100.479 47.8948 101.76 47.8948L101.76 47.8848Z" fill="#133C65"/>
    <path d="M0.499876 46.5836C0.499877 71.7943 20.9426 92.2371 46.1534 92.2371C71.3641 92.2371 91.8069 71.7943 91.8069 46.5836C91.8069 21.3728 71.3641 0.930066 46.1534 0.930067C20.9426 0.930068 0.499875 21.3728 0.499876 46.5836ZM36.6273 46.5836C36.6273 53.8746 30.717 59.775 23.4359 59.775C16.1548 59.775 10.2445 53.8647 10.2445 46.5836C10.2445 39.3025 16.1548 33.3921 23.4359 33.3921C30.717 33.3921 36.6273 39.3025 36.6273 46.5836Z" fill="#133C65"/>
    <path d="M89.8103 46.5836C89.8103 70.6619 70.2218 90.2504 46.1435 90.2504C22.0651 90.2504 2.48657 70.6619 2.48657 46.5836C2.48657 22.5052 22.0751 2.91672 46.1534 2.91672C70.2318 2.91672 89.8202 22.5052 89.8202 46.5836L89.8103 46.5836ZM8.24789 46.5836C8.24789 54.9574 15.0621 61.7617 23.426 61.7617C31.7898 61.7617 38.6041 54.9474 38.6041 46.5836C38.6041 38.2197 31.7898 31.4055 23.426 31.4055C15.0621 31.4055 8.24789 38.2197 8.24789 46.5836Z" fill="#133C65"/>
  </g>
  <defs>
    <clipPath id="clip0_514_1397">
      <rect width="91.2971" height="197.425" fill="white" transform="translate(0.499878 92.2371) rotate(-90)"/>
    </clipPath>
  </defs>
</svg>