<svg width="12" height="14" viewBox="0 0 12 14" fill="none" xmlns="http://www.w3.org/2000/svg">
<path d="M10.6667 1.66634H10V0.333008H8.66667V1.66634H3.33333V0.333008H2V1.66634H1.33333C0.6 1.66634 0 2.26634 0 2.99967V12.333C0 13.0663 0.6 13.6663 1.33333 13.6663H10.6667C11.4 13.6663 12 13.0663 12 12.333V2.99967C12 2.26634 11.4 1.66634 10.6667 1.66634ZM10.6667 12.333H1.33333V5.66634H10.6667V12.333ZM1.33333 4.33301V2.99967H10.6667V4.33301H1.33333ZM5.04 11.3063L8.99333 7.35301L8.28667 6.64634L5.04 9.89301L3.63333 8.48634L2.92667 9.19301L5.04 11.3063Z" fill="#9A9FA5"/>
</svg>
