<svg width="23" height="26" viewBox="0 0 23 26" fill="currentColor" xmlns="http://www.w3.org/2000/svg">
<path d="M20.4236 2.66667H19.1805V0.180557H16.6944V2.66667H6.74995V0.180557H4.26383V2.66667H3.02078C1.65342 2.66667 0.534668 3.78542 0.534668 5.15278V22.5556C0.534668 23.9229 1.65342 25.0417 3.02078 25.0417H20.4236C21.7909 25.0417 22.9097 23.9229 22.9097 22.5556V5.15278C22.9097 3.78542 21.7909 2.66667 20.4236 2.66667ZM20.4236 22.5556H3.02078V10.125H20.4236V22.5556ZM3.02078 7.63889V5.15278H20.4236V7.63889H3.02078ZM5.50689 12.6111H17.9374V15.0972H5.50689V12.6111ZM5.50689 17.5833H14.2083V20.0694H5.50689V17.5833Z" fill="currentColor"/>
</svg>
