<svg width="21" height="18" viewBox="0 0 21 18" fill="none" xmlns="http://www.w3.org/2000/svg">
<path d="M16.259 17.5009C15.869 17.8909 15.239 17.8909 14.849 17.5009L12.729 15.3809C12.339 14.9909 12.339 14.3609 12.729 13.9709C13.119 13.5809 13.749 13.5809 14.139 13.9709L15.549 15.3809L19.089 11.8409C19.479 11.4509 20.109 11.4509 20.499 11.8409C20.889 12.2309 20.889 12.8609 20.499 13.2509L16.259 17.5009ZM10.289 16.2109H2.20898C1.10898 16.2109 0.208984 15.3109 0.208984 14.2109V2.21094C0.208984 1.11094 1.10898 0.210938 2.20898 0.210938H18.209C19.309 0.210938 20.209 1.11094 20.209 2.21094V8.89094C19.299 8.46094 18.289 8.21094 17.209 8.21094C13.339 8.21094 10.209 11.3409 10.209 15.2109C10.209 15.5509 10.239 15.8809 10.289 16.2109ZM9.67898 8.88094C9.99898 9.08094 10.419 9.08094 10.739 8.88094L17.809 4.46094C18.059 4.30094 18.209 4.03094 18.209 3.74094C18.209 3.07094 17.479 2.67094 16.909 3.02094L10.209 7.21094L3.50898 3.02094C2.93898 2.67094 2.20898 3.07094 2.20898 3.74094C2.20898 4.03094 2.35898 4.30094 2.60898 4.46094L9.67898 8.88094Z" fill="#121212"/>
</svg>
