<svg width="14" height="14" viewBox="0 0 14 14" fill="none" xmlns="http://www.w3.org/2000/svg">
<path d="M6.66663 0.333984L2.99996 6.33398H10.3333L6.66663 0.333984ZM6.66663 2.89398L7.95329 5.00065H5.37329L6.66663 2.89398ZM10.3333 7.66732C8.67329 7.66732 7.33329 9.00732 7.33329 10.6673C7.33329 12.3273 8.67329 13.6673 10.3333 13.6673C11.9933 13.6673 13.3333 12.3273 13.3333 10.6673C13.3333 9.00732 11.9933 7.66732 10.3333 7.66732ZM10.3333 12.334C9.41329 12.334 8.66663 11.5873 8.66663 10.6673C8.66663 9.74732 9.41329 9.00065 10.3333 9.00065C11.2533 9.00065 12 9.74732 12 10.6673C12 11.5873 11.2533 12.334 10.3333 12.334ZM0.666626 13.334H5.99996V8.00065H0.666626V13.334ZM1.99996 9.33398H4.66663V12.0007H1.99996V9.33398Z" fill="#6F767E"/>
</svg>
