<svg xmlns="http://www.w3.org/2000/svg" width="24" height="25" viewBox="0 0 24 25" fill="none">
  <path d="M12 2C6.20156 2 1.5 6.70156 1.5 12.5C1.5 18.2984 6.20156 23 12 23C17.7984 23 22.5 18.2984 22.5 12.5C22.5 6.70156 17.7984 2 12 2ZM12 21.2188C7.18594 21.2188 3.28125 17.3141 3.28125 12.5C3.28125 7.68594 7.18594 3.78125 12 3.78125C16.8141 3.78125 20.7188 7.68594 20.7188 12.5C20.7188 17.3141 16.8141 21.2188 12 21.2188Z" fill="#133C65"/>
  <path d="M12 2C6.20156 2 1.5 6.70156 1.5 12.5C1.5 18.2984 6.20156 23 12 23C17.7984 23 22.5 18.2984 22.5 12.5C22.5 6.70156 17.7984 2 12 2ZM12 21.2188C7.18594 21.2188 3.28125 17.3141 3.28125 12.5C3.28125 7.68594 7.18594 3.78125 12 3.78125C16.8141 3.78125 20.7188 7.68594 20.7188 12.5C20.7188 17.3141 16.8141 21.2188 12 21.2188Z" fill="#212121"/>
  <path d="M14.1395 8.1758L8.37392 12.3477C8.34997 12.3649 8.33046 12.3876 8.317 12.4139C8.30354 12.4402 8.29652 12.4693 8.29652 12.4988C8.29652 12.5284 8.30354 12.5575 8.317 12.5838C8.33046 12.61 8.34997 12.6328 8.37392 12.65L14.1395 16.8219C14.2637 16.911 14.4372 16.8219 14.4372 16.6696V15.5703C14.4372 15.3313 14.3223 15.1039 14.1278 14.9633L10.72 12.5L14.1278 10.0344C14.3223 9.89377 14.4372 9.66877 14.4372 9.42736V8.32815C14.4372 8.1758 14.2637 8.08674 14.1395 8.1758Z" fill="#133C65"/>
  <path d="M14.1395 8.1758L8.37392 12.3477C8.34997 12.3649 8.33046 12.3876 8.317 12.4139C8.30354 12.4402 8.29652 12.4693 8.29652 12.4988C8.29652 12.5284 8.30354 12.5575 8.317 12.5838C8.33046 12.61 8.34997 12.6328 8.37392 12.65L14.1395 16.8219C14.2637 16.911 14.4372 16.8219 14.4372 16.6696V15.5703C14.4372 15.3313 14.3223 15.1039 14.1278 14.9633L10.72 12.5L14.1278 10.0344C14.3223 9.89377 14.4372 9.66877 14.4372 9.42736V8.32815C14.4372 8.1758 14.2637 8.08674 14.1395 8.1758Z" fill="#212121"/>
</svg>