<svg width="14" height="12" viewBox="0 0 14 12" fill="none" xmlns="http://www.w3.org/2000/svg">
<path d="M6.99992 2.66667V1.33333C6.99992 0.6 6.39992 0 5.66659 0H1.66659C0.933252 0 0.333252 0.6 0.333252 1.33333V10.6667C0.333252 11.4 0.933252 12 1.66659 12H12.3333C13.0666 12 13.6666 11.4 13.6666 10.6667V4C13.6666 3.26667 13.0666 2.66667 12.3333 2.66667H6.99992ZM2.99992 10.6667H1.66659V9.33333H2.99992V10.6667ZM2.99992 8H1.66659V6.66667H2.99992V8ZM2.99992 5.33333H1.66659V4H2.99992V5.33333ZM2.99992 2.66667H1.66659V1.33333H2.99992V2.66667ZM5.66659 10.6667H4.33325V9.33333H5.66659V10.6667ZM5.66659 8H4.33325V6.66667H5.66659V8ZM5.66659 5.33333H4.33325V4H5.66659V5.33333ZM5.66659 2.66667H4.33325V1.33333H5.66659V2.66667ZM11.6666 10.6667H6.99992V9.33333H8.33325V8H6.99992V6.66667H8.33325V5.33333H6.99992V4H11.6666C12.0333 4 12.3333 4.3 12.3333 4.66667V10C12.3333 10.3667 12.0333 10.6667 11.6666 10.6667ZM10.9999 5.33333H9.66659V6.66667H10.9999V5.33333ZM10.9999 8H9.66659V9.33333H10.9999V8Z" fill="currentColor"/>
</svg>
