<svg width="26" height="24" viewBox="0 0 26 24" fill="currentColor" xmlns="http://www.w3.org/2000/svg">
<path d="M12.7221 5.61805V3.13194C12.7221 1.76458 11.6033 0.645828 10.2359 0.645828H2.77762C1.41025 0.645828 0.291504 1.76458 0.291504 3.13194V20.5347C0.291504 21.9021 1.41025 23.0208 2.77762 23.0208H22.6665C24.0339 23.0208 25.1526 21.9021 25.1526 20.5347V8.10416C25.1526 6.7368 24.0339 5.61805 22.6665 5.61805H12.7221ZM5.26373 20.5347H2.77762V18.0486H5.26373V20.5347ZM5.26373 15.5625H2.77762V13.0764H5.26373V15.5625ZM5.26373 10.5903H2.77762V8.10416H5.26373V10.5903ZM5.26373 5.61805H2.77762V3.13194H5.26373V5.61805ZM10.2359 20.5347H7.74984V18.0486H10.2359V20.5347ZM10.2359 15.5625H7.74984V13.0764H10.2359V15.5625ZM10.2359 10.5903H7.74984V8.10416H10.2359V10.5903ZM10.2359 5.61805H7.74984V3.13194H10.2359V5.61805ZM21.4234 20.5347H12.7221V18.0486H15.2082V15.5625H12.7221V13.0764H15.2082V10.5903H12.7221V8.10416H21.4234C22.1071 8.10416 22.6665 8.66354 22.6665 9.34722V19.2917C22.6665 19.9753 22.1071 20.5347 21.4234 20.5347ZM20.1804 10.5903H17.6943V13.0764H20.1804V10.5903ZM20.1804 15.5625H17.6943V18.0486H20.1804V15.5625Z" fill="currentColor"/>
</svg>
