<svg width="14" height="16" viewBox="0 0 14 16" fill="none" xmlns="http://www.w3.org/2000/svg">
<path d="M12.3333 2.66667H1.66659C0.933252 2.66667 0.333252 3.26667 0.333252 4V12C0.333252 12.7333 0.933252 13.3333 1.66659 13.3333H12.3333C13.0666 13.3333 13.6666 12.7333 13.6666 12V4C13.6666 3.26667 13.0666 2.66667 12.3333 2.66667ZM12.3333 12H1.66659V4H12.3333V12ZM1.66659 0H12.3333V1.33333H1.66659V0ZM1.66659 14.6667H12.3333V16H1.66659V14.6667ZM6.99992 8C7.91992 8 8.66659 7.25333 8.66659 6.33333C8.66659 5.41333 7.91992 4.66667 6.99992 4.66667C6.07992 4.66667 5.33325 5.41333 5.33325 6.33333C5.33325 7.25333 6.07992 8 6.99992 8ZM6.99992 5.66667C7.36659 5.66667 7.66659 5.96667 7.66659 6.33333C7.66659 6.7 7.36659 7 6.99992 7C6.63325 7 6.33325 6.7 6.33325 6.33333C6.33325 5.96667 6.63325 5.66667 6.99992 5.66667ZM10.3333 10.66C10.3333 9.26667 8.12659 8.66667 6.99992 8.66667C5.87325 8.66667 3.66659 9.26667 3.66659 10.66V11.3333H10.3333V10.66ZM4.87325 10.3333C5.27992 9.98667 6.22659 9.66667 6.99992 9.66667C7.77992 9.66667 8.72659 9.98667 9.13325 10.3333H4.87325Z" fill="currentColor"/>
</svg>
