<svg width="12" height="14" viewBox="0 0 12 14" fill="none" xmlns="http://www.w3.org/2000/svg">
<path d="M6.00008 7.00065C5.26675 7.00065 4.66675 6.40065 4.66675 5.66732C4.66675 4.93398 5.26675 4.33398 6.00008 4.33398C6.73342 4.33398 7.33342 4.93398 7.33342 5.66732C7.33342 6.40065 6.73342 7.00065 6.00008 7.00065ZM10.0001 5.80065C10.0001 3.38065 8.23341 1.66732 6.00008 1.66732C3.76675 1.66732 2.00008 3.38065 2.00008 5.80065C2.00008 7.36065 3.30008 9.42732 6.00008 11.894C8.70008 9.42732 10.0001 7.36065 10.0001 5.80065ZM6.00008 0.333984C8.80008 0.333984 11.3334 2.48065 11.3334 5.80065C11.3334 8.01398 9.55342 10.634 6.00008 13.6673C2.44675 10.634 0.666748 8.01398 0.666748 5.80065C0.666748 2.48065 3.20008 0.333984 6.00008 0.333984Z" fill="#6F767E"/>
</svg>
