<svg width="14" height="14" viewBox="0 0 14 14" fill="none" xmlns="http://www.w3.org/2000/svg">
<path d="M6.99992 0.332031C3.32659 0.332031 0.333252 3.32536 0.333252 6.9987C0.333252 10.672 3.32659 13.6654 6.99992 13.6654C10.6733 13.6654 13.6666 10.672 13.6666 6.9987C13.6666 3.32536 10.6733 0.332031 6.99992 0.332031ZM6.99992 12.332C4.05992 12.332 1.66659 9.9387 1.66659 6.9987C1.66659 4.0587 4.05992 1.66536 6.99992 1.66536C9.93992 1.66536 12.3333 4.0587 12.3333 6.9987C12.3333 9.9387 9.93992 12.332 6.99992 12.332ZM8.72659 4.72536L9.66659 5.66536L6.99992 8.33203L4.33325 5.66536L5.27325 4.72536L6.33325 5.7787V2.9987H7.66659V5.7787L8.72659 4.72536ZM10.3333 10.332H3.66659V8.9987H10.3333V10.332Z" fill="#6F767E"/>
</svg>
