<svg width="100" height="100" viewBox="0 0 166 166" fill="none" xmlns="http://www.w3.org/2000/svg">
<g id="empty 1" clip-path="url(#clip0_1241_4358)">
<path id="Vector" d="M148.959 30.7129H20.2478C18.5114 30.714 16.8463 31.4042 15.6184 32.6321C14.3906 33.86 13.7003 35.525 13.6992 37.2615V155.355C13.7003 157.092 14.3906 158.757 15.6184 159.985C16.8463 161.213 18.5114 161.903 20.2478 161.904H148.959C150.696 161.903 152.361 161.213 153.589 159.985C154.817 158.757 155.508 157.092 155.509 155.355V37.2615C155.508 35.5249 154.817 33.8598 153.589 32.6319C152.361 31.404 150.696 30.7138 148.959 30.7129Z" fill="#C6C6C6"/>
<path id="Vector_2" d="M140.486 120.867H28.7224C25.106 120.867 22.1738 117.935 22.1738 114.319V9.97634C22.1738 6.35987 25.106 3.42773 28.7224 3.42773H140.486C144.103 3.42773 147.035 6.35987 147.035 9.97634V114.319C147.035 117.935 144.103 120.867 140.486 120.867Z" fill="#F9F9F9"/>
<path id="Vector_3" d="M24.2471 116.391V12.0497C24.2471 8.43319 27.1793 5.50105 30.7958 5.50105H142.56C143.837 5.50105 145.024 5.8723 146.031 6.50458C144.874 4.65847 142.826 3.42773 140.486 3.42773H28.7224C25.106 3.42773 22.1738 6.35987 22.1738 9.97634V114.319C22.1738 116.659 23.4046 118.706 25.2507 119.864C24.6184 118.857 24.2471 117.669 24.2471 116.392V116.391Z" fill="url(#paint0_linear_1241_4358)"/>
<path id="Vector_4" d="M126.735 25.4736H42.4746V30.2755H126.735V25.4736ZM126.735 43.8089H42.4746V48.6108H126.735V43.8089ZM126.735 62.1483H42.4746V66.9502H126.735V62.1483ZM126.735 80.4835H42.4746V85.2861H126.735V80.4835Z" fill="white"/>
<path id="Vector_5" d="M52.5156 64.9844L73.6891 86.1585H52.5156V64.9844Z" fill="url(#paint1_linear_1241_4358)"/>
<path id="Vector_6" d="M155.509 87.905V39.1874L147.035 30.7129V87.9043H155.509V87.905Z" fill="#C6C6C6"/>
<path id="Vector_7" d="M165.434 92.3117L156.305 156.94C155.848 160.171 153.083 162.573 149.82 162.573H19.3878C16.125 162.573 13.3599 160.171 12.9034 156.94L0.565591 69.6113C0.00905368 65.6689 3.06832 62.1464 7.04996 62.1464H47.3302C50.593 62.1464 53.3582 64.5477 53.8146 67.7781L55.4315 79.2145C55.8879 82.4455 58.653 84.8468 61.9158 84.8468H158.951C162.932 84.8468 165.992 88.3693 165.435 92.3117H165.434Z" fill="url(#paint2_linear_1241_4358)"/>
<path id="Vector_8" d="M133.087 133.746H36.1227C35.5912 133.745 35.078 133.551 34.6793 133.2C34.2806 132.849 34.0237 132.364 33.9567 131.837L32.7435 122.231C32.705 121.924 32.7322 121.612 32.8235 121.316C32.9147 121.02 33.0678 120.747 33.2726 120.515C33.4774 120.283 33.7293 120.097 34.0115 119.969C34.2937 119.842 34.5998 119.776 34.9095 119.775H134.3C134.609 119.776 134.915 119.842 135.198 119.969C135.48 120.097 135.732 120.283 135.937 120.515C136.141 120.747 136.295 121.02 136.386 121.316C136.477 121.612 136.504 121.924 136.466 122.231L135.253 131.837C135.186 132.364 134.929 132.849 134.53 133.2C134.131 133.551 133.618 133.745 133.087 133.746Z" fill="#D5D5D5"/>
</g>
<defs>
<linearGradient id="paint0_linear_1241_4358" x1="88.4443" y1="65.9803" x2="5.6265" y2="-16.8382" gradientUnits="userSpaceOnUse">
<stop stop-color="white"/>
</linearGradient>
<linearGradient id="paint1_linear_1241_4358" x1="66.5048" y1="89.5558" x2="40.9115" y2="63.9633" gradientUnits="userSpaceOnUse">
<stop stop-color="#C2CECE" stop-opacity="0"/>
<stop offset="0.179" stop-color="#AFBCBC" stop-opacity="0.179"/>
<stop offset="1" stop-color="#5B6A6A"/>
</linearGradient>
<linearGradient id="paint2_linear_1241_4358" x1="83" y1="62.1464" x2="83" y2="162.573" gradientUnits="userSpaceOnUse">
<stop stop-color="#EEF0F4"/>
<stop offset="0.927" stop-color="#E4E4E4"/>
</linearGradient>
<clipPath id="clip0_1241_4358">
<rect width="165" height="165" fill="white" transform="translate(0.5 0.5)"/>
</clipPath>
</defs>
</svg>
