<svg width="28" height="16" viewBox="0 0 28 16" fill="currentColor" xmlns="http://www.w3.org/2000/svg">
<path d="M27.3961 3.4167C27.3961 4.78406 26.2773 5.90281 24.9099 5.90281C24.6862 5.90281 24.4749 5.87795 24.276 5.81579L19.8507 10.2286C19.9129 10.4275 19.9377 10.6513 19.9377 10.875C19.9377 12.2424 18.819 13.3611 17.4516 13.3611C16.0842 13.3611 14.9655 12.2424 14.9655 10.875C14.9655 10.6513 14.9904 10.4275 15.0525 10.2286L11.8827 7.05885C11.6838 7.121 11.4601 7.14586 11.2363 7.14586C11.0126 7.14586 10.7888 7.121 10.5899 7.05885L4.93404 12.7272C4.99619 12.9261 5.02105 13.1374 5.02105 13.3611C5.02105 14.7285 3.9023 15.8473 2.53494 15.8473C1.16758 15.8473 0.0488281 14.7285 0.0488281 13.3611C0.0488281 11.9938 1.16758 10.875 2.53494 10.875C2.75869 10.875 2.97001 10.8999 3.1689 10.962L8.83723 5.30614C8.77508 5.10725 8.75022 4.8835 8.75022 4.65975C8.75022 3.29239 9.86897 2.17364 11.2363 2.17364C12.6037 2.17364 13.7224 3.29239 13.7224 4.65975C13.7224 4.8835 13.6976 5.10725 13.6354 5.30614L16.8052 8.47593C17.0041 8.41378 17.2279 8.38892 17.4516 8.38892C17.6754 8.38892 17.8991 8.41378 18.098 8.47593L22.5108 4.05065C22.4487 3.85176 22.4238 3.64045 22.4238 3.4167C22.4238 2.04933 23.5426 0.930584 24.9099 0.930584C26.2773 0.930584 27.3961 2.04933 27.3961 3.4167Z" fill="currentColor"/>
</svg>
