<!-- <svg xmlns="http://www.w3.org/2000/svg" width="41" height="92" viewBox="0 0 41 92" fill="none">
  <path fill-rule="evenodd" clip-rule="evenodd" d="M41 0C17.952 2.47399 0 21.9912 0 45.6954C1.87633e-06 69.3996 17.952 88.9168 41 91.3908V0ZM23.09 58.9754C30.42 58.9754 36.37 53.0354 36.37 45.6954C36.37 38.3654 30.42 32.4154 23.09 32.4154C15.76 32.4154 9.81 38.3654 9.81 45.6954C9.81 53.0254 15.76 58.9754 23.09 58.9754Z" fill="white"/>
</svg> -->
<svg width="42" height="91" viewBox="0 0 42 91" fill="none" xmlns="http://www.w3.org/2000/svg">
  <path fill-rule="evenodd" clip-rule="evenodd" d="M41.13 0.189999C18.1383 2.64773 0.230003 22.0366 0.230003 45.585C0.230005 69.1334 18.1383 88.5223 41.13 90.98V0.189999ZM23.2637 58.7777C30.5758 58.7777 36.5113 52.8767 36.5113 45.585C36.5113 38.3032 30.5758 32.3923 23.2637 32.3923C15.9516 32.3923 10.0161 38.3032 10.0161 45.585C10.0161 52.8668 15.9516 58.7777 23.2637 58.7777Z" fill="white"/>
  </svg>
  