<svg width="16" height="12" viewBox="0 0 16 12" fill="none" xmlns="http://www.w3.org/2000/svg">
<path d="M13.3334 3.99935V1.99935H12.0001V3.99935H10.0001V5.33268H12.0001V7.33268H13.3334V5.33268H15.3334V3.99935H13.3334ZM6.00008 5.99935C7.47341 5.99935 8.66675 4.80602 8.66675 3.33268C8.66675 1.85935 7.47341 0.666016 6.00008 0.666016C4.52675 0.666016 3.33341 1.85935 3.33341 3.33268C3.33341 4.80602 4.52675 5.99935 6.00008 5.99935ZM6.00008 1.99935C6.73342 1.99935 7.33342 2.59935 7.33342 3.33268C7.33342 4.06602 6.73342 4.66602 6.00008 4.66602C5.26675 4.66602 4.66675 4.06602 4.66675 3.33268C4.66675 2.59935 5.26675 1.99935 6.00008 1.99935ZM10.2601 7.70602C9.14008 7.13268 7.68675 6.66602 6.00008 6.66602C4.31341 6.66602 2.86008 7.13268 1.74008 7.70602C1.07341 8.04602 0.666748 8.73268 0.666748 9.47935V11.3327H11.3334V9.47935C11.3334 8.73268 10.9267 8.04602 10.2601 7.70602ZM10.0001 9.99935H2.00008V9.47935C2.00008 9.22602 2.13341 8.99935 2.34675 8.89268C3.14008 8.48602 4.42008 7.99935 6.00008 7.99935C7.58008 7.99935 8.86008 8.48602 9.65341 8.89268C9.86675 8.99935 10.0001 9.22602 10.0001 9.47935V9.99935Z" fill="#6F767E"/>
</svg>
