<svg width="11" height="14" viewBox="0 0 11 14" fill="none" xmlns="http://www.w3.org/2000/svg">
<path d="M8.68851 6.89214C9.57768 6.27797 10.201 5.26964 10.201 4.33464C10.201 2.26297 8.59684 0.667969 6.53434 0.667969H0.805176V13.5013H7.25851C9.17434 13.5013 10.6593 11.943 10.6593 10.0271C10.6593 8.6338 9.87101 7.44214 8.68851 6.89214ZM3.55518 2.95964H6.30518C7.06601 2.95964 7.68018 3.5738 7.68018 4.33464C7.68018 5.09547 7.06601 5.70964 6.30518 5.70964H3.55518V2.95964ZM6.76351 11.2096H3.55518V8.45964H6.76351C7.52434 8.45964 8.13851 9.0738 8.13851 9.83463C8.13851 10.5955 7.52434 11.2096 6.76351 11.2096Z" fill="black" fill-opacity="0.54"/>
</svg>
