<svg width="30" height="30" viewBox="0 0 30 30" fill="currentColor" xmlns="http://www.w3.org/2000/svg">
<path d="M15.0999 7.60156C15.9068 11.3593 18.8421 14.2946 22.5999 15.1016C18.8421 15.9085 15.9068 18.8438 15.0999 22.6016C14.2929 18.8438 11.3576 15.9085 7.59985 15.1016C11.3576 14.2946 14.2929 11.3593 15.0999 7.60156Z" fill="currentColor"/>
<path d="M22.0999 5.59961C22.3688 6.85218 23.3473 7.83064 24.5999 8.09961C23.3473 8.36858 22.3688 9.34704 22.0999 10.5996C21.8309 9.34704 20.8524 8.36858 19.5999 8.09961C20.8524 7.83064 21.8309 6.85218 22.0999 5.59961Z" fill="currentColor"/>
<path d="M8.6001 19.6016C8.81528 20.6036 9.59804 21.3864 10.6001 21.6016C9.59804 21.8167 8.81528 22.5995 8.6001 23.6016C8.38492 22.5995 7.60216 21.8167 6.6001 21.6016C7.60216 21.3864 8.38492 20.6036 8.6001 19.6016Z" fill="currentColor"/>
</svg>
