<svg width="12" height="14" viewBox="0 0 12 14" fill="none" xmlns="http://www.w3.org/2000/svg">
<path d="M8 6.66602V2.66602L6 0.666016L4 2.66602V3.99935H0V13.3327H12V6.66602H8ZM2.66667 11.9993H1.33333V10.666H2.66667V11.9993ZM2.66667 9.33268H1.33333V7.99935H2.66667V9.33268ZM2.66667 6.66602H1.33333V5.33268H2.66667V6.66602ZM6.66667 11.9993H5.33333V10.666H6.66667V11.9993ZM6.66667 9.33268H5.33333V7.99935H6.66667V9.33268ZM6.66667 6.66602H5.33333V5.33268H6.66667V6.66602ZM6.66667 3.99935H5.33333V2.66602H6.66667V3.99935ZM10.6667 11.9993H9.33333V10.666H10.6667V11.9993ZM10.6667 9.33268H9.33333V7.99935H10.6667V9.33268Z" fill="#6F767E"/>
</svg>
