<svg width="14" height="14" viewBox="0 0 14 14" fill="none" xmlns="http://www.w3.org/2000/svg">
<path d="M9.60256 7.77316L8.18836 9.18736L12.1858 13.1848L13.6 11.7706L9.60256 7.77316Z" fill="#6F767E"/>
<path d="M10.6666 5.73945C11.9532 5.73945 12.9999 4.69279 12.9999 3.40612C12.9999 3.01945 12.8932 2.65945 12.7266 2.33945L10.9266 4.13945L9.93324 3.14612L11.7332 1.34612C11.4132 1.17945 11.0532 1.07279 10.6666 1.07279C9.3799 1.07279 8.33324 2.11945 8.33324 3.40612C8.33324 3.67945 8.38657 3.93945 8.47324 4.17945L7.2399 5.41279L6.05324 4.22612L6.52657 3.75279L5.58657 2.81279L6.9999 1.39945C6.2199 0.619453 4.95324 0.619453 4.17324 1.39945L1.81324 3.75945L2.75324 4.69945H0.873236L0.399902 5.17279L2.7599 7.53279L3.23324 7.05945V5.17279L4.17324 6.11279L4.64657 5.63945L5.83324 6.82612L0.893236 11.7661L2.30657 13.1795L9.89324 5.59945C10.1332 5.68612 10.3932 5.73945 10.6666 5.73945Z" fill="#6F767E"/>
</svg>
