<svg width="26" height="24" viewBox="0 0 26 24" fill="currentColor" xmlns="http://www.w3.org/2000/svg">
<path d="M15.2082 5.32988V2.84377H10.2359V5.32988H15.2082ZM2.77762 7.81599V21.4896H22.6665V7.81599H2.77762ZM22.6665 5.32988C24.0463 5.32988 25.1526 6.4362 25.1526 7.81599V21.4896C25.1526 22.8694 24.0463 23.9757 22.6665 23.9757H2.77762C1.39782 23.9757 0.291504 22.8694 0.291504 21.4896L0.303934 7.81599C0.303934 6.4362 1.39782 5.32988 2.77762 5.32988H7.74984V2.84377C7.74984 1.46398 8.85616 0.357656 10.2359 0.357656H15.2082C16.588 0.357656 17.6943 1.46398 17.6943 2.84377V5.32988H22.6665Z" fill="currentColor"/>
</svg>
