<svg width="18" height="22" viewBox="0 0 18 22" fill="none" xmlns="http://www.w3.org/2000/svg">
<path d="M9 8.22656C11.21 8.22656 13 6.43656 13 4.22656C13 2.01656 11.21 0.226562 9 0.226562C6.79 0.226562 5 2.01656 5 4.22656C5 6.43656 6.79 8.22656 9 8.22656ZM9 2.22656C10.1 2.22656 11 3.12656 11 4.22656C11 5.32656 10.1 6.22656 9 6.22656C7.9 6.22656 7 5.32656 7 4.22656C7 3.12656 7.9 2.22656 9 2.22656ZM9 10.7766C6.64 8.57656 3.48 7.22656 0 7.22656V18.2266C3.48 18.2266 6.64 19.5766 9 21.7766C11.36 19.5866 14.52 18.2266 18 18.2266V7.22656C14.52 7.22656 11.36 8.57656 9 10.7766ZM16 16.3566C13.47 16.6966 11.07 17.6566 9 19.1766C6.94 17.6566 4.53 16.6866 2 16.3466V9.39656C4.1 9.77656 6.05 10.7466 7.64 12.2266L9 13.5066L10.36 12.2366C11.95 10.7566 13.9 9.78656 16 9.40656V16.3566Z" fill="#121212"/>
</svg>
