<svg width="20" height="20" viewBox="0 0 20 20" fill="none" xmlns="http://www.w3.org/2000/svg">
<path d="M14.9375 11.0573V14.5232H12.9284V11.2888C12.9284 10.477 12.6378 9.92289 11.9103 9.92289C11.3553 9.92289 11.0244 10.296 10.8791 10.6579C10.8266 10.7873 10.8125 10.9673 10.8125 11.1473V14.5232H8.8025C8.8025 14.5232 8.82969 9.04633 8.8025 8.47914H10.8125V9.33508L10.7994 9.35477H10.8125V9.33508C11.0797 8.92258 11.5559 8.33664 12.6238 8.33664C13.9456 8.33664 14.9375 9.20102 14.9375 11.0573ZM6.69969 5.56445C6.0125 5.56445 5.5625 6.01633 5.5625 6.60883C5.5625 7.19008 5.99938 7.65414 6.67344 7.65414H6.68656C7.38781 7.65414 7.82375 7.18914 7.82375 6.60883C7.81063 6.01633 7.38781 5.56445 6.69969 5.56445ZM5.68156 14.5232H7.69156V8.47914H5.68156V14.5232Z" fill="#6F767E"/>
<path d="M4.625 2.49805C4.12772 2.49805 3.65081 2.69559 3.29918 3.04722C2.94754 3.39885 2.75 3.87577 2.75 4.37305V15.623C2.75 16.1203 2.94754 16.5972 3.29918 16.9489C3.65081 17.3005 4.12772 17.498 4.625 17.498H15.875C16.3723 17.498 16.8492 17.3005 17.2008 16.9489C17.5525 16.5972 17.75 16.1203 17.75 15.623V4.37305C17.75 3.87577 17.5525 3.39885 17.2008 3.04722C16.8492 2.69559 16.3723 2.49805 15.875 2.49805H4.625ZM4.625 0.623047H15.875C16.8696 0.623047 17.8234 1.01814 18.5267 1.7214C19.2299 2.42466 19.625 3.37848 19.625 4.37305V15.623C19.625 16.6176 19.2299 17.5714 18.5267 18.2747C17.8234 18.978 16.8696 19.373 15.875 19.373H4.625C3.63044 19.373 2.67661 18.978 1.97335 18.2747C1.27009 17.5714 0.875 16.6176 0.875 15.623V4.37305C0.875 3.37848 1.27009 2.42466 1.97335 1.7214C2.67661 1.01814 3.63044 0.623047 4.625 0.623047Z" fill="#6F767E"/>
</svg>
