<svg width="14" height="8" viewBox="0 0 14 8" fill="none" xmlns="http://www.w3.org/2000/svg">
<path d="M10.3333 0.666016H7.66665V1.99935H10.3333C11.4333 1.99935 12.3333 2.89935 12.3333 3.99935C12.3333 5.09935 11.4333 5.99935 10.3333 5.99935H7.66665V7.33268H10.3333C12.1733 7.33268 13.6666 5.83935 13.6666 3.99935C13.6666 2.15935 12.1733 0.666016 10.3333 0.666016ZM6.33331 5.99935H3.66665C2.56665 5.99935 1.66665 5.09935 1.66665 3.99935C1.66665 2.89935 2.56665 1.99935 3.66665 1.99935H6.33331V0.666016H3.66665C1.82665 0.666016 0.333313 2.15935 0.333313 3.99935C0.333313 5.83935 1.82665 7.33268 3.66665 7.33268H6.33331V5.99935ZM4.33331 3.33268H9.66665V4.66602H4.33331V3.33268Z" fill="#6F767E"/>
</svg>
