<svg width="24" height="24" viewBox="0 0 24 24" fill="none" xmlns="http://www.w3.org/2000/svg">
<rect x="12.75" y="3" width="7.49999" height="1.5" rx="0.75" transform="rotate(90 12.75 3)" fill="#38761D"/>
<path fill-rule="evenodd" clip-rule="evenodd" d="M7.5 5.19233C7.5 4.59941 6.88274 4.21507 6.39539 4.55278C4.21255 6.06537 3 8.6286 3 12.0002C3 17.6252 6.375 21.0002 12 21.0002C17.625 21.0002 21 17.6252 21 12.0002C21 8.6286 19.7874 6.06537 17.6046 4.55278C17.1173 4.21507 16.5 4.59941 16.5 5.19233V5.92639C16.5 5.96714 16.467 6.00017 16.4262 6.00017C16.3514 6.00017 16.3227 6.10102 16.3849 6.14252C16.6853 6.34274 16.9549 6.5648 17.1952 6.80504C18.2844 7.89429 19 9.58871 19 12.0002C19 14.4117 18.2844 16.1061 17.1952 17.1953C16.1059 18.2846 14.4115 19.0002 12 19.0002C9.58852 19.0002 7.89409 18.2846 6.80484 17.1953C5.71558 16.1061 5 14.4117 5 12.0002C5 9.58871 5.71558 7.89429 6.80484 6.80504C7.04507 6.5648 7.31475 6.34274 7.61506 6.14252C7.67731 6.10102 7.6486 6.00017 7.57378 6.00017C7.53303 6.00017 7.5 5.96714 7.5 5.92639V5.19233Z" fill="#333333"/>
</svg>
