<svg width="12" height="3" viewBox="0 0 12 3" fill="none" xmlns="http://www.w3.org/2000/svg">
<path d="M6.00033 2.16683C6.36852 2.16683 6.66699 1.86835 6.66699 1.50016C6.66699 1.13197 6.36852 0.833496 6.00033 0.833496C5.63214 0.833496 5.33366 1.13197 5.33366 1.50016C5.33366 1.86835 5.63214 2.16683 6.00033 2.16683Z" stroke="currentColor" stroke-width="1.33333" stroke-linecap="round" stroke-linejoin="round"/>
<path d="M10.667 2.16683C11.0352 2.16683 11.3337 1.86835 11.3337 1.50016C11.3337 1.13197 11.0352 0.833496 10.667 0.833496C10.2988 0.833496 10.0003 1.13197 10.0003 1.50016C10.0003 1.86835 10.2988 2.16683 10.667 2.16683Z" stroke="currentColor" stroke-width="1.33333" stroke-linecap="round" stroke-linejoin="round"/>
<path d="M1.33366 2.16683C1.70185 2.16683 2.00033 1.86835 2.00033 1.50016C2.00033 1.13197 1.70185 0.833496 1.33366 0.833496C0.965469 0.833496 0.666992 1.13197 0.666992 1.50016C0.666992 1.86835 0.965469 2.16683 1.33366 2.16683Z" stroke="currentColor" stroke-width="1.33333" stroke-linecap="round" stroke-linejoin="round"/>
</svg>
