<svg width="20" height="20" viewBox="0 0 23 23" fill="none" xmlns="http://www.w3.org/2000/svg">
<path d="M10 4.00001H5.8C4.11984 4.00001 3.27976 4.00001 2.63803 4.32699C2.07354 4.61461 1.6146 5.07356 1.32698 5.63804C1 6.27978 1 7.11986 1 8.80001V17.2C1 18.8802 1 19.7203 1.32698 20.362C1.6146 20.9265 2.07354 21.3854 2.63803 21.673C3.27976 22 4.11984 22 5.8 22H14.2C15.8802 22 16.7202 22 17.362 21.673C17.9265 21.3854 18.3854 20.9265 18.673 20.362C19 19.7203 19 18.8802 19 17.2V13M6.99997 16H8.67452C9.1637 16 9.40829 16 9.63846 15.9448C9.84254 15.8958 10.0376 15.815 10.2166 15.7053C10.4184 15.5816 10.5914 15.4087 10.9373 15.0628L20.5 5.50001C21.3284 4.67159 21.3284 3.32844 20.5 2.50001C19.6716 1.67159 18.3284 1.67159 17.5 2.50001L7.93723 12.0628C7.59133 12.4087 7.41838 12.5816 7.29469 12.7834C7.18504 12.9624 7.10423 13.1575 7.05523 13.3616C6.99997 13.5917 6.99997 13.8363 6.99997 14.3255V16Z" stroke="currentColor" stroke-width="2" stroke-linecap="round" stroke-linejoin="round"/>
</svg>
