<svg width="16" height="16" viewBox="0 0 16 16" fill="none" xmlns="http://www.w3.org/2000/svg">
<path d="M16 0.800781L14.664 2.13678L13.336 0.800781L12 2.13678L10.664 0.800781L9.336 2.13678L8 0.800781L6.664 2.13678L5.336 0.800781L4 2.13678L2.664 0.800781L1.336 2.13678L0 0.800781V13.6008C0 14.4808 0.72 15.2008 1.6 15.2008H14.4C15.28 15.2008 16 14.4808 16 13.6008V0.800781ZM7.2 13.6008H1.6V8.80078H7.2V13.6008ZM14.4 13.6008H8.8V12.0008H14.4V13.6008ZM14.4 10.4008H8.8V8.80078H14.4V10.4008ZM14.4 7.20078H1.6V4.80078H14.4V7.20078Z" fill="white"/>
</svg>
