<svg xmlns="http://www.w3.org/2000/svg" width="54" height="47" viewBox="0 0 54 47" fill="none">
  <path d="M53.7393 44.1225L28.6693 0.959184C28.2957 0.31773 27.6509 0 27 0C26.3491 0 25.6983 0.31773 25.3307 0.959184L0.260664 44.1225C-0.480588 45.4054 0.447484 47 1.92999 47H52.07C53.5525 47 54.4806 45.4054 53.7393 44.1225ZM25.0715 17.7449C25.0715 17.4811 25.2885 17.2653 25.5537 17.2653H28.4463C28.7115 17.2653 28.9285 17.4811 28.9285 17.7449V28.7755C28.9285 29.0393 28.7115 29.2551 28.4463 29.2551H25.5537C25.2885 29.2551 25.0715 29.0393 25.0715 28.7755V17.7449ZM27 38.8469C26.243 38.8316 25.5223 38.5216 24.9924 37.9837C24.4625 37.4457 24.1658 36.7225 24.1658 35.9694C24.1658 35.2162 24.4625 34.4931 24.9924 33.9551C25.5223 33.4171 26.243 33.1072 27 33.0918C27.757 33.1072 28.4777 33.4171 29.0076 33.9551C29.5375 34.4931 29.8342 35.2162 29.8342 35.9694C29.8342 36.7225 29.5375 37.4457 29.0076 37.9837C28.4777 38.5216 27.757 38.8316 27 38.8469Z" fill="#133C65"/>
  <path d="M53.7393 44.1225L28.6693 0.959184C28.2957 0.31773 27.6509 0 27 0C26.3491 0 25.6983 0.31773 25.3307 0.959184L0.260664 44.1225C-0.480588 45.4054 0.447484 47 1.92999 47H52.07C53.5525 47 54.4806 45.4054 53.7393 44.1225ZM25.0715 17.7449C25.0715 17.4811 25.2885 17.2653 25.5537 17.2653H28.4463C28.7115 17.2653 28.9285 17.4811 28.9285 17.7449V28.7755C28.9285 29.0393 28.7115 29.2551 28.4463 29.2551H25.5537C25.2885 29.2551 25.0715 29.0393 25.0715 28.7755V17.7449ZM27 38.8469C26.243 38.8316 25.5223 38.5216 24.9924 37.9837C24.4625 37.4457 24.1658 36.7225 24.1658 35.9694C24.1658 35.2162 24.4625 34.4931 24.9924 33.9551C25.5223 33.4171 26.243 33.1072 27 33.0918C27.757 33.1072 28.4777 33.4171 29.0076 33.9551C29.5375 34.4931 29.8342 35.2162 29.8342 35.9694C29.8342 36.7225 29.5375 37.4457 29.0076 37.9837C28.4777 38.5216 27.757 38.8316 27 38.8469Z" fill="#212121"/>
</svg>