<svg xmlns="http://www.w3.org/2000/svg" width="15" height="15" viewBox="0 0 15 15" fill="none">
  <path d="M7.5 0C3.35826 0 0 3.35826 0 7.5C0 11.6417 3.35826 15 7.5 15C11.6417 15 15 11.6417 15 7.5C15 3.35826 11.6417 0 7.5 0ZM8.03571 11.1161C8.03571 11.1897 7.97545 11.25 7.90179 11.25H7.09821C7.02455 11.25 6.96429 11.1897 6.96429 11.1161V6.5625C6.96429 6.48884 7.02455 6.42857 7.09821 6.42857H7.90179C7.97545 6.42857 8.03571 6.48884 8.03571 6.5625V11.1161ZM7.5 5.35714C7.28972 5.35285 7.0895 5.2663 6.9423 5.11607C6.79511 4.96584 6.71266 4.7639 6.71266 4.55357C6.71266 4.34325 6.79511 4.1413 6.9423 3.99107C7.0895 3.84084 7.28972 3.75429 7.5 3.75C7.71028 3.75429 7.9105 3.84084 8.0577 3.99107C8.20489 4.1413 8.28734 4.34325 8.28734 4.55357C8.28734 4.7639 8.20489 4.96584 8.0577 5.11607C7.9105 5.2663 7.71028 5.35285 7.5 5.35714Z" fill="#464646"/>
</svg>