<svg xmlns="http://www.w3.org/2000/svg" width="54" height="54" viewBox="0 0 54 54" fill="none">
  <g filter="url(#filter0_d_7440_15170)">
    <rect x="8" y="4" width="38" height="38" rx="4" fill="white"/>
  </g>
  <path d="M26.1823 11H16.9583C16.4283 11 16 11.4283 16 11.9583V21.1823C16 21.3141 16.1078 21.4219 16.2396 21.4219H26.1823C26.3141 21.4219 26.4219 21.3141 26.4219 21.1823V11.2396C26.4219 11.1078 26.3141 11 26.1823 11ZM24.5052 19.5052H17.9167V12.9167H24.5052V19.5052ZM20.3724 17.2891H22.0495C22.1812 17.2891 22.2891 17.1812 22.2891 17.0495V15.3724C22.2891 15.2406 22.1812 15.1328 22.0495 15.1328H20.3724C20.2406 15.1328 20.1328 15.2406 20.1328 15.3724V17.0495C20.1328 17.1812 20.2406 17.2891 20.3724 17.2891ZM26.1823 23.5781H16.2396C16.1078 23.5781 16 23.6859 16 23.8177V33.0417C16 33.5717 16.4283 34 16.9583 34H26.1823C26.3141 34 26.4219 33.8922 26.4219 33.7604V23.8177C26.4219 23.6859 26.3141 23.5781 26.1823 23.5781ZM24.5052 32.0833H17.9167V25.4948H24.5052V32.0833ZM20.3724 29.8672H22.0495C22.1812 29.8672 22.2891 29.7594 22.2891 29.6276V27.9505C22.2891 27.8187 22.1812 27.7109 22.0495 27.7109H20.3724C20.2406 27.7109 20.1328 27.8187 20.1328 27.9505V29.6276C20.1328 29.7594 20.2406 29.8672 20.3724 29.8672ZM38.0417 11H28.8177C28.6859 11 28.5781 11.1078 28.5781 11.2396V21.1823C28.5781 21.3141 28.6859 21.4219 28.8177 21.4219H38.7604C38.8922 21.4219 39 21.3141 39 21.1823V11.9583C39 11.4283 38.5717 11 38.0417 11ZM37.0833 19.5052H30.4948V12.9167H37.0833V19.5052ZM32.9505 17.2891H34.6276C34.7594 17.2891 34.8672 17.1812 34.8672 17.0495V15.3724C34.8672 15.2406 34.7594 15.1328 34.6276 15.1328H32.9505C32.8187 15.1328 32.7109 15.2406 32.7109 15.3724V17.0495C32.7109 17.1812 32.8187 17.2891 32.9505 17.2891ZM38.7604 23.5781H37.3229C37.1911 23.5781 37.0833 23.6859 37.0833 23.8177V27.8307H34.7474V23.8177C34.7474 23.6859 34.6396 23.5781 34.5078 23.5781H28.8177C28.6859 23.5781 28.5781 23.6859 28.5781 23.8177V33.7604C28.5781 33.8922 28.6859 34 28.8177 34H30.2552C30.387 34 30.4948 33.8922 30.4948 33.7604V26.4531H32.8307V29.5078C32.8307 29.6396 32.9385 29.7474 33.0703 29.7474H38.7604C38.8922 29.7474 39 29.6396 39 29.5078V23.8177C39 23.6859 38.8922 23.5781 38.7604 23.5781ZM34.5078 32.0833H33.0703C32.9385 32.0833 32.8307 32.1911 32.8307 32.3229V33.7604C32.8307 33.8922 32.9385 34 33.0703 34H34.5078C34.6396 34 34.7474 33.8922 34.7474 33.7604V32.3229C34.7474 32.1911 34.6396 32.0833 34.5078 32.0833ZM38.7604 32.0833H37.3229C37.1911 32.0833 37.0833 32.1911 37.0833 32.3229V33.7604C37.0833 33.8922 37.1911 34 37.3229 34H38.7604C38.8922 34 39 33.8922 39 33.7604V32.3229C39 32.1911 38.8922 32.0833 38.7604 32.0833Z" fill="#909090"/>
  <defs>
    <filter id="filter0_d_7440_15170" x="0" y="0" width="54" height="54" filterUnits="userSpaceOnUse" color-interpolation-filters="sRGB">
      <feFlood flood-opacity="0" result="BackgroundImageFix"/>
      <feColorMatrix in="SourceAlpha" type="matrix" values="0 0 0 0 0 0 0 0 0 0 0 0 0 0 0 0 0 0 127 0" result="hardAlpha"/>
      <feOffset dy="4"/>
      <feGaussianBlur stdDeviation="4"/>
      <feComposite in2="hardAlpha" operator="out"/>
      <feColorMatrix type="matrix" values="0 0 0 0 0.0745098 0 0 0 0 0.235294 0 0 0 0 0.396078 0 0 0 0.15 0"/>
      <feBlend mode="normal" in2="BackgroundImageFix" result="effect1_dropShadow_7440_15170"/>
      <feBlend mode="normal" in="SourceGraphic" in2="effect1_dropShadow_7440_15170" result="shape"/>
    </filter>
  </defs>
</svg>