<svg width="25" height="25" viewBox="0 0 25 25" fill="none" xmlns="http://www.w3.org/2000/svg">
<g clip-path="url(#clip0_7445_14486)">
<path d="M11.6482 0H2.03989C1.48773 0 1.04163 0.446099 1.04163 0.998264V10.6066C1.04163 10.7438 1.15393 10.8561 1.29119 10.8561H11.6482C11.7854 10.8561 11.8977 10.7438 11.8977 10.6066V0.249566C11.8977 0.112305 11.7854 0 11.6482 0ZM9.90122 8.85959H3.03815V1.99653H9.90122V8.85959ZM5.59621 6.55111H7.34317C7.48043 6.55111 7.59273 6.4388 7.59273 6.30154V4.55458C7.59273 4.41732 7.48043 4.30501 7.34317 4.30501H5.59621C5.45894 4.30501 5.34664 4.41732 5.34664 4.55458V6.30154C5.34664 6.4388 5.45894 6.55111 5.59621 6.55111ZM11.6482 13.1022H1.29119C1.15393 13.1022 1.04163 13.2145 1.04163 13.3518V22.9601C1.04163 23.5122 1.48773 23.9583 2.03989 23.9583H11.6482C11.7854 23.9583 11.8977 23.846 11.8977 23.7088V13.3518C11.8977 13.2145 11.7854 13.1022 11.6482 13.1022ZM9.90122 21.9618H3.03815V15.0987H9.90122V21.9618ZM5.59621 19.6533H7.34317C7.48043 19.6533 7.59273 19.541 7.59273 19.4038V17.6568C7.59273 17.5195 7.48043 17.4072 7.34317 17.4072H5.59621C5.45894 17.4072 5.34664 17.5195 5.34664 17.6568V19.4038C5.34664 19.541 5.45894 19.6533 5.59621 19.6533ZM24.0017 0H14.3934C14.2561 0 14.1438 0.112305 14.1438 0.249566V10.6066C14.1438 10.7438 14.2561 10.8561 14.3934 10.8561H24.7504C24.8877 10.8561 25 10.7438 25 10.6066V0.998264C25 0.446099 24.5539 0 24.0017 0ZM23.0034 8.85959H16.1404V1.99653H23.0034V8.85959ZM18.6984 6.55111H20.4454C20.5826 6.55111 20.6949 6.4388 20.6949 6.30154V4.55458C20.6949 4.41732 20.5826 4.30501 20.4454 4.30501H18.6984C18.5612 4.30501 18.4489 4.41732 18.4489 4.55458V6.30154C18.4489 6.4388 18.5612 6.55111 18.6984 6.55111ZM24.7504 13.1022H23.253C23.1157 13.1022 23.0034 13.2145 23.0034 13.3518V17.532H20.5702V13.3518C20.5702 13.2145 20.4579 13.1022 20.3206 13.1022H14.3934C14.2561 13.1022 14.1438 13.2145 14.1438 13.3518V23.7088C14.1438 23.846 14.2561 23.9583 14.3934 23.9583H15.8908C16.0281 23.9583 16.1404 23.846 16.1404 23.7088V16.097H18.5736V19.279C18.5736 19.4162 18.6859 19.5285 18.8232 19.5285H24.7504C24.8877 19.5285 25 19.4162 25 19.279V13.3518C25 13.2145 24.8877 13.1022 24.7504 13.1022ZM20.3206 21.9618H18.8232C18.6859 21.9618 18.5736 22.0741 18.5736 22.2114V23.7088C18.5736 23.846 18.6859 23.9583 18.8232 23.9583H20.3206C20.4579 23.9583 20.5702 23.846 20.5702 23.7088V22.2114C20.5702 22.0741 20.4579 21.9618 20.3206 21.9618ZM24.7504 21.9618H23.253C23.1157 21.9618 23.0034 22.0741 23.0034 22.2114V23.7088C23.0034 23.846 23.1157 23.9583 23.253 23.9583H24.7504C24.8877 23.9583 25 23.846 25 23.7088V22.2114C25 22.0741 24.8877 21.9618 24.7504 21.9618Z" fill="#909090"/>
</g>
<defs>
<clipPath id="clip0_7445_14486">
<rect width="25" height="25" fill="white"/>
</clipPath>
</defs>
</svg>