<svg xmlns="http://www.w3.org/2000/svg" width="14" height="14" viewBox="0 0 14 14" fill="none">
  <path d="M13.0934 13.5399L13.0933 13.5404L13.0934 13.5402L13.0935 13.5401M13.0934 13.5399L13.8305 12.7704L13.8184 12.7831L13.8006 12.8017L13.7584 12.8458L13.1857 13.4448L13.0935 13.5401M13.0934 13.5399L13.0933 13.5404L13.093 13.5406L13.0929 13.5408L12.9919 13.6451L13.0925 13.5422L13.0925 13.5422L13.0934 13.5413L13.0934 13.5412L13.0935 13.5411L13.0938 13.5409M13.0934 13.5399L13.096 13.5387M13.0935 13.5401L13.0938 13.5409M13.0935 13.5401L13.0938 13.5409M13.0938 13.5409L13.096 13.5387M13.0942 13.5418L13.0942 13.5418L13.0942 13.5418ZM13.0942 13.5418L13.0944 13.5423L13.0942 13.5418ZM13.096 13.5387L13.0938 13.5409L13.0936 13.5412L13.0934 13.5413L13.0934 13.5413L13.0925 13.5423L13.0925 13.5423L13.096 13.5387Z" fill="#909090" stroke="#909090" stroke-width="3"/>
</svg>