<svg xmlns="http://www.w3.org/2000/svg" width="157" height="93" viewBox="0 0 157 93" fill="none">
  <path fill-rule="evenodd" clip-rule="evenodd" d="M156.453 37.2991V58.9605L99.1675 58.9605C99.1675 61.2451 97.3199 63.0927 95.0352 63.0927H88.7335C82.1178 80.1507 65.5463 92.247 46.1534 92.247C20.9426 92.247 0.499878 71.8043 0.499878 46.5935C0.499878 21.3828 20.9426 0.940002 46.1534 0.940002C65.5462 0.940002 82.1178 13.0363 88.7335 30.0943H95.0352C97.3199 30.0943 99.1675 31.9419 99.1675 34.2265H132.067L133.239 39.223H141.136L142.308 34.2265H147.692L148.486 37.5939H156.383L156.453 37.2991ZM23.4359 59.7849C30.717 59.7849 36.6273 53.8846 36.6273 46.5935C36.6273 39.3124 30.717 33.4021 23.4359 33.4021C16.1548 33.4021 10.2445 39.3124 10.2445 46.5935C10.2445 53.8746 16.1548 59.7849 23.4359 59.7849Z" fill="white"/>
</svg>