<svg xmlns="http://www.w3.org/2000/svg" data-name="Layer 1" viewBox="0 0 54 67.5" x="0px" y="0px"><path d="M38,43a3,3,0,1,0,3,3A3,3,0,0,0,38,43Zm0,4a1,1,0,1,1,1-1A1,1,0,0,1,38,47Z"/><path d="M38,38c-8.611,0-15.436,7.009-15.722,7.308a1,1,0,0,0,0,1.384A28.328,28.328,0,0,0,29.815,52H11a1,1,0,0,1-1-1V5a4.926,4.926,0,0,0-.1-.955c-.017-.086-.042-.168-.063-.252a4.979,4.979,0,0,0-.216-.666c-.036-.09-.073-.178-.115-.265a4.884,4.884,0,0,0-.362-.633c-.041-.062-.075-.127-.118-.187C9.015,2.029,9.008,2.013,9,2H39a3,3,0,0,1,3,3V35.614a1,1,0,1,0,2,0V5a5.006,5.006,0,0,0-5-5H5a.965.965,0,0,0-.13.026c-.12,0-.238-.015-.358,0A5.133,5.133,0,0,0,0,5.172V35a3,3,0,0,0,3,3H5a1,1,0,0,0,0-2H3a1,1,0,0,1-1-1V5.172A3.119,3.119,0,0,1,4.7,2.014a3.2,3.2,0,0,1,.47,0,2.978,2.978,0,0,1,.3.031,3.556,3.556,0,0,1,.591.156,2.8,2.8,0,0,1,.262.119A2.943,2.943,0,0,1,6.6,2.47a2.915,2.915,0,0,1,.252.186,2.7,2.7,0,0,1,.219.181,3.174,3.174,0,0,1,.226.252c.055.067.115.129.164.2a3.072,3.072,0,0,1,.2.343c.03.059.068.114.095.175a2.978,2.978,0,0,1,.153.474c.009.035.024.067.032.1A3.027,3.027,0,0,1,8,5V51a3,3,0,0,0,3,3H38c8.611,0,15.436-7.009,15.722-7.308a1,1,0,0,0,0-1.384C53.436,45.009,46.611,38,38,38ZM31.405,50.519A26.916,26.916,0,0,1,24.454,46a26.772,26.772,0,0,1,6.956-4.525,7.969,7.969,0,0,0,0,9.045ZM38,52a6,6,0,1,1,6-6A6.006,6.006,0,0,1,38,52Zm6.59-1.474a7.969,7.969,0,0,0,0-9.045A26.916,26.916,0,0,1,51.546,46,26.772,26.772,0,0,1,44.59,50.526Z"/><circle cx="15" cy="11" r="1"/><path d="M20,12H36a1,1,0,0,0,0-2H20a1,1,0,0,0,0,2Z"/><circle cx="15" cy="17" r="1"/><path d="M20,18h8a1,1,0,0,0,0-2H20a1,1,0,0,0,0,2Z"/><circle cx="15" cy="23" r="1"/><path d="M20,24H32a1,1,0,0,0,0-2H20a1,1,0,0,0,0,2Z"/><circle cx="15" cy="29" r="1"/><path d="M38,29a1,1,0,0,0-1-1H20a1,1,0,0,0,0,2H37A1,1,0,0,0,38,29Z"/><circle cx="15" cy="35" r="1"/><path d="M20,34a1,1,0,0,0,0,2h3a1,1,0,0,0,0-2Z"/><text x="0" y="69" fill="#000000" font-size="5px" font-weight="bold" font-family="'Helvetica Neue', Helvetica, Arial-Unicode, Arial, Sans-serif">Created by Martins Ratkus</text><text x="0" y="74" fill="#000000" font-size="5px" font-weight="bold" font-family="'Helvetica Neue', Helvetica, Arial-Unicode, Arial, Sans-serif">from the Noun Project</text></svg>