<svg width="21" height="20" viewBox="0 0 21 20" fill="currentColor" xmlns="http://www.w3.org/2000/svg">
<path d="M10.722 5.58998L11.8905 9.45588H15.3959L12.5742 11.4696L13.7302 15.2112L10.722 12.924L7.71383 15.2112L8.86987 11.4696L6.04813 9.45588H9.55355L10.722 5.58998ZM7.71383 6.96977H2.1698C0.964037 6.96977 0.466815 8.52359 1.44883 9.2197L5.97355 12.4516L4.19598 18.1821C3.8355 19.3382 5.178 20.2705 6.13515 19.5371L10.722 16.0565L15.3089 19.5495C16.2661 20.2829 17.6086 19.3506 17.2481 18.1946L15.4705 12.4641L19.9952 9.23213C20.9772 8.52359 20.48 6.9822 19.2742 6.9822H13.7302L11.9029 0.965809C11.5424 -0.215094 9.87675 -0.215094 9.52869 0.965809L7.71383 6.96977Z" fill="currentColor"/>
</svg>
